<svg width="48" height="48" viewBox="0 0 48 48" fill="none" xmlns="http://www.w3.org/2000/svg">
<path d="M44 26.5837C44 24.2204 42.0852 22.3025 39.7008 22.2525V14.4537H28.0921V9H20V14.4492H8.39125V22.2434C5.96547 22.2434 4 24.1841 4 26.5792C4 28.9743 5.96547 30.9149 8.39125 30.9149V39H39.7008V30.9103C42.0806 30.8649 44 28.947 44 26.5837Z" fill="#7D77FC"/>
<path d="M15.1796 28.4015C15.166 28.3879 15.1342 28.3743 15.1116 28.3652C15.107 28.3788 15.1388 28.397 15.1796 28.4015Z" fill="#004A43"/>
<path d="M18.6053 24.061L18.6151 24.0757C18.6102 24.0659 18.6102 24.061 18.6053 24.061Z" fill="#004A43"/>
<path d="M15.1852 26.5972C15.1898 26.6062 15.1898 26.6062 15.1943 26.6153L15.1852 26.5972Z" fill="#004A43"/>
<path d="M15.9126 27.4835C15.7653 27.4608 15.6364 27.4381 15.5259 27.4108C15.4707 27.3972 15.42 27.3835 15.3648 27.3745C15.3188 27.3608 15.2451 27.3472 15.2636 27.3426C15.2451 27.3108 15.2543 27.2836 15.2451 27.2836C15.2451 27.279 15.2405 27.279 15.2313 27.279C15.2359 27.2699 15.2359 27.2654 15.2313 27.2608L15.2267 27.2517L15.2221 27.1245C15.2129 26.9473 15.1991 26.77 15.1899 26.6018C15.0748 26.4428 15.1899 26.161 15.0886 25.9701L15.1531 25.8974C15.1209 25.8338 15.0978 25.7565 15.1347 25.6883L15.1531 25.6929C15.1025 25.5974 15.1347 25.4838 15.1071 25.4384L15.1254 25.4429L15.1162 25.3248L15.1439 25.3429C15.0886 25.1748 15.0886 24.9975 15.1116 24.843L15.0334 24.8566C15.1209 24.5294 14.9551 24.4067 15.061 24.1113L15.0794 24.1158C14.8677 23.7386 15.2221 23.5205 15.0242 23.1342C15.0472 23.1842 15.0656 23.1115 15.084 23.116C15.061 22.9388 15.0472 22.7479 14.8907 22.7433C14.8907 22.6115 14.9413 22.6388 15.0011 22.6206C14.9321 22.6206 14.9045 22.507 14.8999 22.407L14.9275 22.4525C14.9229 22.4116 14.9183 22.3389 14.9137 22.3207L14.8999 22.2479C14.8585 22.2479 14.8124 22.248 14.771 22.257C14.8078 22.1661 14.9321 22.2707 14.8999 22.1843L14.794 22.1434C14.8124 22.0389 14.9137 22.0389 14.9965 22.0707C15.0334 22.0934 15.0656 22.1116 15.0979 22.1298C15.1347 22.1343 15.1623 22.1343 15.1945 22.1298L15.2405 22.1207C15.2589 22.1162 15.259 22.1116 15.3326 22.1071C15.5489 22.0798 15.7791 22.0525 15.9954 22.0253C16.4373 21.9707 16.87 21.9389 17.2797 22.0207L17.3165 22.098C17.3211 22.157 17.3947 22.1116 17.4223 22.0662C17.4361 22.0207 17.4684 21.9753 17.4638 22.0298C17.4776 22.0116 17.4914 21.9934 17.5098 21.9753C17.5144 21.998 17.5236 22.0162 17.5006 22.0434C17.5236 22.048 17.5328 22.0298 17.5743 21.9934C17.5743 22.0162 17.5696 22.0434 17.5604 22.0662C17.5743 22.0798 17.5927 22.0798 17.6157 22.0752C17.6295 22.1116 17.7031 22.1571 17.6847 22.257C17.5328 22.6388 17.6709 23.4796 17.7538 23.9341C17.9287 24.5885 17.4592 25.3475 17.6617 26.0156C17.6433 26.0383 17.6847 26.0928 17.6939 26.0928L17.6755 26.7064C17.6755 26.7064 17.6295 29.6741 18.6099 27.4199L18.6375 27.4335C18.702 27.0972 18.7158 26.8882 18.5823 26.6564C18.7434 26.62 18.6007 26.3837 18.6513 26.3019L18.6652 26.311C18.5409 26.1065 18.7664 25.8883 18.656 25.6929C18.6698 25.702 18.7112 25.7065 18.7158 25.752C18.6974 25.6065 18.6605 25.4111 18.7526 25.402C18.7296 25.0612 18.771 24.5794 18.6237 24.3613L18.6513 24.3749C18.5501 24.2476 18.6375 24.2113 18.5869 24.0749C18.6007 24.0659 18.6053 24.0568 18.6099 24.0613C18.5133 23.925 18.5961 23.6614 18.5547 23.5523L18.6145 23.5432L18.6007 23.2705L18.5869 23.3705C18.4166 23.3342 18.6928 23.166 18.5823 22.9706C18.6053 22.7842 18.2325 22.5979 18.3153 22.407C18.2371 22.3161 18.4442 22.4888 18.3844 22.3525C18.4719 22.3479 18.4396 22.4161 18.5086 22.3798C18.4672 22.2752 18.6007 22.0843 18.5409 21.8616L18.6099 21.8253C18.5041 21.598 18.6468 21.2617 18.6145 21.0618C18.5731 21.0663 18.5271 21.08 18.481 21.0981C18.1082 21.1663 18.3798 20.8981 17.9195 21.0481C17.8827 21.0208 17.8412 20.989 17.7998 20.9618C17.6249 20.9527 17.6571 21.08 17.4776 21.039C17.4868 21.0118 17.4223 20.9982 17.3809 20.9891C17.3533 20.98 17.3303 20.9709 17.3625 20.939C17.1093 20.8572 16.8562 21.0845 16.5202 20.939C16.4511 21.0527 16.2808 20.9936 16.2302 21.0799C16.221 21.0299 15.8942 21.0845 16.0783 20.9709C16.0921 20.9618 16.1243 20.9618 16.1197 20.98L16.1381 20.9118C15.9448 20.7936 15.7975 20.9936 15.6088 20.98C15.664 20.9981 15.7376 20.9936 15.6916 21.039L15.5167 21.0345L15.5489 20.9754L15.2911 20.9527L15.328 21.0209C15.2359 20.989 15.0564 20.8754 14.8308 20.98C14.7388 21.039 15.0656 21.0663 14.8447 21.0936C14.6099 21.0618 14.2463 21.0209 13.8827 21.0027C13.8734 21.089 13.8688 21.1663 13.8642 21.2436C13.9425 21.2708 13.9425 21.3708 13.9563 21.4844L13.8873 21.4526C13.9839 21.9116 13.7353 21.5344 13.8136 22.0025L13.7676 21.9526C13.8136 22.0025 13.8642 22.0525 13.9102 22.098C13.9793 22.2843 13.9425 22.3434 13.9148 22.3616C13.8872 22.3934 13.8643 22.4252 13.9563 22.5388C13.9425 22.4479 14.1082 22.4979 14.0759 22.607L14.0116 22.5797C14.0254 22.6388 14.0529 22.6615 14.0391 22.7024C14.0023 22.6661 13.9425 22.6843 13.9517 22.7706L13.8688 22.7115L13.9931 22.8797C13.9241 23.0115 14.0115 23.216 13.9195 23.2705C13.9195 23.2705 13.8734 23.5523 13.9747 23.6159C13.9102 23.5614 13.8872 23.7159 13.8136 23.6705C13.8872 23.7432 13.9425 23.9568 13.8688 24.0431L13.8596 24.025C13.7814 24.3431 13.9655 24.5658 13.8734 24.8521C13.9517 24.8385 13.9103 24.9884 14.0116 24.9521C14.1128 25.2475 13.8044 25.4884 14.1174 25.5974C14.1358 25.7292 14.0437 25.7565 14.0253 25.8247L14.0069 25.7929C14.0346 26.0428 14.0345 26.1155 14.0299 26.3019C14.0621 26.3928 14.2095 26.411 14.1726 26.5746C14.1128 26.52 14.1266 26.5882 14.1266 26.6518C14.1174 26.6109 14.0944 26.6018 14.0576 26.6836C14.076 26.6973 14.0852 26.7109 14.0944 26.7291C14.0898 26.7291 14.0852 26.7336 14.0806 26.7291C14.099 26.8336 14.1174 26.8154 14.1266 26.7654C14.1358 26.77 14.145 26.7655 14.1634 26.7473C14.0898 26.8563 14.168 27.0472 14.0668 27.0609C14.0714 27.1518 14.0852 27.1881 14.099 27.3063C14.1128 27.4153 14.1266 27.5108 14.145 27.6017C14.1772 27.7835 14.2141 27.9334 14.2325 28.0971C14.1819 28.1834 14.1358 28.1334 14.1174 28.0289L14.1358 28.2652H14.1726C14.1542 28.2834 14.1266 28.2925 14.099 28.297C14.0806 28.2607 14.0944 28.1471 14.0806 28.088C14.0575 28.1789 14.0437 28.2652 14.0437 28.3425C14.3568 28.3698 14.7112 28.2743 14.9965 28.3879L15.0932 28.3379L15.1162 28.3516C15.1254 28.3197 15.2083 28.2879 15.2405 28.2789C15.2727 28.347 15.2221 28.4243 15.3556 28.4334C15.4523 28.5061 15.6502 28.4288 15.7837 28.4061C15.7146 28.3879 15.7377 28.3561 15.7745 28.3379C15.8389 28.3425 15.8711 28.4107 15.9217 28.3879V28.4743C15.9033 28.3925 16.0967 28.4016 16.1243 28.3698C16.1565 28.4379 16.0184 28.4152 16 28.4606C16.2578 28.4788 16.1289 28.4697 16.3867 28.4834C16.5293 28.4334 16.3682 28.4016 16.4419 28.3334C16.5662 28.3288 16.6905 28.2789 16.824 28.3425L16.7871 28.2607C17.0219 28.2243 17.1554 28.2425 17.3026 28.3334C19.0656 27.8744 17.74 27.5199 17.74 27.5199C17.0817 27.3108 16.7135 27.4972 15.9126 27.4835Z" fill="#004A43"/>
<path d="M31.7044 28.4015C31.6908 28.3879 31.659 28.3743 31.6364 28.3652C31.6318 28.3788 31.6636 28.397 31.7044 28.4015Z" fill="#004A43"/>
<path d="M35.1301 24.061L35.1398 24.0757C35.1349 24.0659 35.1349 24.061 35.1301 24.061Z" fill="#004A43"/>
<path d="M31.71 26.5972C31.7146 26.6062 31.7146 26.6062 31.7191 26.6153L31.71 26.5972Z" fill="#004A43"/>
<path d="M32.4327 27.4835C32.2854 27.4608 32.1565 27.4381 32.0461 27.4108C31.9908 27.3972 31.9402 27.3835 31.885 27.3745C31.8389 27.3608 31.7653 27.3472 31.7837 27.3426C31.7653 27.3108 31.7745 27.2836 31.7653 27.2836C31.7653 27.279 31.7607 27.279 31.7515 27.279C31.7561 27.2699 31.7561 27.2654 31.7515 27.2608L31.7469 27.2517L31.7423 27.1245C31.7331 26.9473 31.7193 26.77 31.7101 26.6018C31.595 26.4428 31.7101 26.161 31.6088 25.9701L31.6733 25.8974C31.641 25.8338 31.618 25.7565 31.6548 25.6883L31.6733 25.6929C31.6226 25.5974 31.6548 25.4838 31.6272 25.4384L31.6456 25.4429L31.6364 25.3248L31.664 25.3429C31.6088 25.1748 31.6088 24.9975 31.6318 24.843L31.5536 24.8566C31.641 24.5294 31.4753 24.4067 31.5812 24.1113L31.5996 24.1158C31.3879 23.7386 31.7423 23.5205 31.5444 23.1342C31.5674 23.1842 31.5858 23.1115 31.6042 23.116C31.5812 22.9388 31.5674 22.7479 31.4109 22.7433C31.4109 22.6115 31.4615 22.6388 31.5213 22.6206C31.4523 22.6206 31.4247 22.507 31.4201 22.407L31.4477 22.4525C31.4431 22.4116 31.4385 22.3389 31.4339 22.3207L31.4201 22.2479C31.3786 22.2479 31.3326 22.248 31.2912 22.257C31.328 22.1661 31.4523 22.2707 31.4201 22.1843L31.3142 22.1434C31.3326 22.0389 31.4339 22.0389 31.5167 22.0707C31.5535 22.0934 31.5858 22.1116 31.618 22.1298C31.6548 22.1343 31.6824 22.1343 31.7147 22.1298L31.7607 22.1207C31.7791 22.1162 31.7791 22.1116 31.8528 22.1071C32.0691 22.0798 32.2992 22.0525 32.5156 22.0253C32.9575 21.9707 33.3902 21.9389 33.7998 22.0207L33.8366 22.098C33.8412 22.157 33.9149 22.1116 33.9425 22.0662C33.9563 22.0207 33.9885 21.9753 33.9839 22.0298C33.9977 22.0116 34.0116 21.9934 34.03 21.9753C34.0346 21.998 34.0438 22.0162 34.0208 22.0434C34.0438 22.048 34.053 22.0298 34.0944 21.9934C34.0944 22.0162 34.0898 22.0434 34.0806 22.0662C34.0944 22.0798 34.1128 22.0798 34.1358 22.0752C34.1497 22.1116 34.2233 22.1571 34.2049 22.257C34.053 22.6388 34.1911 23.4796 34.2739 23.9341C34.4488 24.5885 33.9793 25.3475 34.1819 26.0156C34.1635 26.0383 34.2049 26.0928 34.2187 26.0928L34.2003 26.7064C34.2003 26.7064 34.1542 29.6741 35.1347 27.4199L35.1623 27.4335C35.2267 27.0972 35.2406 26.8882 35.1071 26.6564C35.2682 26.62 35.1255 26.3837 35.1761 26.3019L35.19 26.311C35.0657 26.1065 35.2912 25.8883 35.1807 25.6929C35.1945 25.702 35.236 25.7065 35.2406 25.752C35.2222 25.6065 35.1853 25.4111 35.2774 25.402C35.2544 25.0612 35.2958 24.5794 35.1485 24.3613L35.1761 24.3749C35.0749 24.2476 35.1623 24.2113 35.1117 24.0749C35.1255 24.0659 35.1301 24.0568 35.1347 24.0613C35.038 23.925 35.1209 23.6614 35.0794 23.5523L35.1393 23.5432L35.1255 23.2705L35.1117 23.3705C34.9414 23.3342 35.2175 23.166 35.1071 22.9706C35.1301 22.7842 34.7573 22.5979 34.8401 22.407C34.7619 22.3161 34.969 22.4888 34.9091 22.3525C34.9966 22.3479 34.9644 22.4161 35.0334 22.3798C34.992 22.2752 35.1255 22.0843 35.0657 21.8616L35.1347 21.8253C35.0288 21.598 35.1715 21.2617 35.1393 21.0618C35.0978 21.0663 35.0519 21.08 35.0058 21.0981C34.633 21.1663 34.9045 20.8981 34.4442 21.0481C34.4074 21.0208 34.366 20.989 34.3246 20.9618C34.1497 20.9527 34.1819 21.08 34.0023 21.039C34.0115 21.0118 33.9471 20.9982 33.9057 20.9891C33.8781 20.98 33.855 20.9709 33.8873 20.939C33.6341 20.8572 33.381 21.0845 33.0449 20.939C32.9759 21.0527 32.8056 20.9936 32.7549 21.0799C32.7457 21.0299 32.4189 21.0845 32.603 20.9709C32.6168 20.9618 32.6491 20.9618 32.6445 20.98L32.6629 20.9118C32.4695 20.7936 32.3223 20.9936 32.1336 20.98C32.1888 20.9981 32.2624 20.9936 32.2164 21.039L32.0415 21.0345L32.0737 20.9754L31.8159 20.9527L31.8528 21.0209C31.7607 20.989 31.5812 20.8754 31.3556 20.98C31.2636 21.039 31.5904 21.0663 31.3694 21.0936C31.1347 21.0618 30.7711 21.0209 30.4074 21.0027C30.3982 21.089 30.3936 21.1663 30.389 21.2436C30.4673 21.2708 30.4672 21.3708 30.481 21.4844L30.412 21.4526C30.5087 21.9116 30.2601 21.5344 30.3384 22.0025L30.2924 21.9526C30.3384 22.0025 30.389 22.0525 30.435 22.098C30.5041 22.2843 30.4672 22.3434 30.4396 22.3616C30.412 22.3934 30.389 22.4252 30.481 22.5388C30.4672 22.4479 30.6329 22.4979 30.6007 22.607L30.5363 22.5797C30.5501 22.6388 30.5777 22.6615 30.5639 22.7024C30.5271 22.6661 30.4672 22.6843 30.4764 22.7706L30.3936 22.7115L30.5179 22.8797C30.4489 23.0115 30.5363 23.216 30.4442 23.2705C30.4442 23.2705 30.3982 23.5523 30.4995 23.6159C30.435 23.5614 30.412 23.7159 30.3384 23.6705C30.412 23.7432 30.4673 23.9568 30.3936 24.0431L30.3844 24.025C30.3061 24.3431 30.4903 24.5658 30.3982 24.8521C30.4765 24.8385 30.435 24.9884 30.5363 24.9521C30.6375 25.2475 30.3292 25.4884 30.6422 25.5974C30.6606 25.7292 30.5685 25.7565 30.5501 25.8247L30.5317 25.7929C30.5593 26.0428 30.5593 26.1155 30.5547 26.3019C30.5869 26.3928 30.7342 26.411 30.6974 26.5746C30.6376 26.52 30.6513 26.5882 30.6513 26.6518C30.6421 26.6109 30.6192 26.6018 30.5823 26.6836C30.6008 26.6973 30.6099 26.7109 30.6192 26.7291C30.6146 26.7291 30.6099 26.7336 30.6053 26.7291C30.6237 26.8336 30.6421 26.8154 30.6513 26.7654C30.6606 26.77 30.6698 26.7655 30.6882 26.7473C30.6146 26.8563 30.6928 27.0472 30.5915 27.0609C30.5961 27.1518 30.61 27.1881 30.6238 27.3063C30.6376 27.4153 30.6514 27.5108 30.6698 27.6017C30.702 27.7835 30.7389 27.9334 30.7573 28.0971C30.7066 28.1834 30.6606 28.1334 30.6422 28.0289L30.6606 28.2652H30.6974C30.679 28.2834 30.6514 28.2925 30.6238 28.297C30.6053 28.2607 30.6191 28.1471 30.6053 28.088C30.5823 28.1789 30.5731 28.2652 30.5731 28.3425C30.8861 28.3698 31.2405 28.2743 31.5259 28.3879L31.6226 28.3379L31.6456 28.3516C31.6548 28.3197 31.7377 28.2879 31.7699 28.2789C31.8021 28.347 31.7515 28.4243 31.885 28.4334C31.9816 28.5061 32.1796 28.4288 32.3131 28.4061C32.244 28.3879 32.267 28.3561 32.3039 28.3379C32.3683 28.3425 32.4005 28.4107 32.4511 28.3879V28.4743C32.4327 28.3925 32.6261 28.4016 32.6537 28.3698C32.6859 28.4379 32.5478 28.4152 32.5294 28.4606C32.7872 28.4788 32.6583 28.4697 32.916 28.4834C33.0587 28.4334 32.8976 28.4016 32.9713 28.3334C33.0956 28.3288 33.2198 28.2789 33.3533 28.3425L33.3165 28.2607C33.5513 28.2243 33.6847 28.2425 33.832 28.3334C35.595 27.8744 34.2694 27.5199 34.2694 27.5199C33.6065 27.3108 33.2382 27.4972 32.4327 27.4835Z" fill="#004A43"/>
<path d="M27.7918 33.5643L27.7238 33.5552C27.7329 33.5642 27.751 33.5733 27.7918 33.5643Z" fill="#004A43"/>
<path d="M25.473 32.9834L25.4876 32.9736L25.473 32.9834Z" fill="#004A43"/>
<path d="M20.718 31.6329C20.1933 31.1739 19.8757 31.2102 19.7376 31.442C19.6041 31.6693 19.6916 32.1192 19.9815 32.3782C20.5937 32.8464 20.359 32.6509 20.4188 32.6782L20.3866 32.7373C20.649 32.8145 20.3728 32.9281 20.6351 33.0054L20.5891 33.0327L20.7226 32.9509C20.9896 32.96 20.7595 33.1372 21.0725 33.1145C20.9804 33.069 21.1047 32.96 21.1967 33.0509L21.1369 33.0918C21.2013 33.1145 21.2335 33.1054 21.2704 33.1418C21.2197 33.1509 21.2059 33.219 21.3026 33.2554L21.2014 33.2963C21.275 33.2917 21.3533 33.2826 21.4315 33.2781C21.5328 33.4054 21.7859 33.4326 21.8043 33.5417C21.8043 33.5417 21.8734 33.5872 21.9562 33.6235C22.0391 33.6553 22.1403 33.678 22.191 33.6417C22.1081 33.678 22.2692 33.7644 22.1956 33.8144C22.3014 33.778 22.55 33.8098 22.6237 33.9144H22.6052C22.9413 34.0916 23.2405 33.9871 23.5443 34.1461C23.5443 34.0643 23.71 34.1371 23.6824 34.0325C24.0276 33.9916 24.2762 34.3416 24.4234 34.028C24.5753 34.0234 24.5983 34.1143 24.6812 34.1371L24.6444 34.1507C24.939 34.1507 25.0172 34.1507 25.2336 34.1461C25.3394 34.1143 25.3486 33.9689 25.5419 34.0007C25.4867 34.0598 25.5604 34.0462 25.634 34.0462C25.588 34.0553 25.5742 34.078 25.6754 34.1143C25.6893 34.0961 25.7077 34.0871 25.7261 34.0734C25.7261 34.078 25.7307 34.0825 25.7307 34.0871C25.8458 34.0598 25.8227 34.0371 25.7675 34.0371C25.7675 34.028 25.7629 34.0189 25.7445 34.0053C25.8734 34.0643 26.0851 33.9598 26.1127 34.0553C26.4717 34.0007 26.6973 33.8417 26.9781 33.7417C27.0241 33.7826 26.9689 33.8417 26.886 33.878L27.0885 33.8144C27.107 33.8871 26.9827 33.8826 26.9182 33.9098C27.0563 33.9371 27.1806 33.8871 27.3003 33.8235C27.42 33.7508 27.5443 33.6826 27.7054 33.6871L27.7422 33.6144L27.7606 33.619C27.7468 33.5917 27.7974 33.5326 27.8342 33.5099C27.8987 33.5553 27.8849 33.6508 28.023 33.5962C28.1565 33.6053 28.3176 33.4372 28.4419 33.3463C28.3636 33.369 28.3728 33.3281 28.3912 33.2917C28.4557 33.2599 28.5247 33.3008 28.5615 33.2554L28.6076 33.3281C28.5431 33.269 28.7411 33.1736 28.7457 33.1236C28.8101 33.1599 28.672 33.2281 28.6766 33.2736C28.9344 33.1327 28.8055 33.2008 29.0586 33.0509C29.1645 32.9191 28.9942 32.9963 29.0172 32.8918C29.1277 32.81 29.2152 32.7055 29.3717 32.6555L29.2888 32.6191C29.4637 32.4282 29.588 32.351 29.7767 32.3146C30.3153 31.4875 30.191 31.283 30.0115 31.2693C29.8182 31.2557 29.5282 31.4284 29.5282 31.4284C28.9021 31.7011 28.764 32.0647 28.0598 32.4646C27.8941 32.5237 27.756 32.5646 27.6317 32.6009C27.5074 32.6282 27.3924 32.6373 27.2819 32.6555C27.1714 32.6736 27.0609 32.6918 26.9367 32.7236C26.8078 32.7463 26.6697 32.7736 26.4994 32.8282C26.3337 32.8645 26.1587 32.8873 25.9884 32.9145C25.8181 32.9418 25.6478 32.9872 25.4821 32.9872C25.3302 33.1008 25.0448 33.01 24.8561 33.0872L24.787 33.0145C24.7226 33.0418 24.6444 33.0599 24.5799 33.019L24.5845 33.0009C24.4833 33.0418 24.3774 33.0054 24.3267 33.0281L24.3314 33.0099C24.2945 33.0099 24.2531 33.0009 24.2163 33.0009L24.2393 32.9781C24.069 33.0009 23.8941 32.9736 23.7468 32.9281V33.0099C23.443 32.8554 23.2911 32.9691 23.0333 32.7964L23.0425 32.7782C22.6237 32.8372 22.5316 32.4601 22.122 32.4646C22.1772 32.4646 22.1219 32.4191 22.1311 32.401C21.9654 32.3419 21.7905 32.2737 21.7123 32.41C21.6018 32.3419 21.6432 32.3101 21.657 32.251C21.6248 32.3101 21.5144 32.2737 21.4269 32.2237H21.4821L21.2197 32.0919L21.2014 32.2328C21.0863 32.1192 21.252 32.0828 21.1093 32.0283L21.0494 32.1192C20.8837 31.9692 21.0448 31.8829 20.718 31.6329Z" fill="#004A43"/>
<path d="M15.1484 26.3746L15.1847 26.3564C15.1756 26.3564 15.162 26.3564 15.1484 26.3746Z" fill="#004A43"/>
<path d="M16.4833 25.6929L16.4883 25.7029L16.4833 25.6929Z" fill="#004A43"/>
<path d="M17.74 24.5704C18.4718 24.6067 18.1404 23.5569 17.7906 23.5387C17.7077 23.5342 17.6433 23.5342 17.5926 23.5342C17.5466 23.5342 17.5282 23.5387 17.519 23.5387C17.5052 23.5433 17.5374 23.5523 17.519 23.5569L17.5098 23.4887C17.3717 23.5887 17.4408 23.3433 17.2935 23.4297L17.298 23.3796L17.2797 23.5251C17.1784 23.6796 17.1738 23.3978 17.0725 23.6069C17.1277 23.5842 17.137 23.7432 17.0633 23.7341V23.666C17.0311 23.6887 17.0265 23.716 16.9943 23.7114C17.0081 23.6705 16.9759 23.616 16.9252 23.6432L16.9391 23.5569C16.916 23.6023 16.893 23.6569 16.8746 23.7023C16.7641 23.6614 16.6812 23.7932 16.6076 23.725C16.6076 23.725 16.4143 23.7705 16.4327 23.875C16.4327 23.8023 16.3269 23.8341 16.3131 23.7614C16.3084 23.8478 16.2256 23.9705 16.1289 23.9477L16.1335 23.9341C15.9034 24.0114 15.9264 24.2477 15.7285 24.3295C15.7975 24.3704 15.6963 24.4249 15.7975 24.4613C15.7653 24.6567 15.4155 24.6567 15.664 24.8567C15.641 24.9385 15.5535 24.9158 15.5167 24.9521L15.5121 24.9249C15.4707 25.0794 15.4523 25.143 15.4154 25.2203C15.4292 25.2748 15.5674 25.3203 15.5029 25.393C15.4569 25.3521 15.4569 25.3884 15.4431 25.4157C15.4431 25.393 15.4247 25.3839 15.3694 25.4112C15.3832 25.4203 15.3925 25.4339 15.3971 25.443C15.3925 25.443 15.3878 25.443 15.3832 25.4384C15.3832 25.493 15.4062 25.4884 15.42 25.4702C15.4292 25.4748 15.4384 25.4748 15.4568 25.4748C15.3648 25.5066 15.4108 25.6202 15.3096 25.5975C15.2774 25.7566 15.3372 25.8929 15.3326 26.0292C15.2774 26.0292 15.2451 25.9883 15.2405 25.9429L15.2267 26.0383C15.1577 26.0156 15.2037 25.9747 15.1991 25.9429C15.0472 26.0156 15.2359 26.1929 15.084 26.2883L15.1301 26.3292L15.1162 26.3337C15.1438 26.3428 15.1761 26.3837 15.1807 26.4019C15.1116 26.4019 15.038 26.361 15.0196 26.4201C14.9413 26.4519 15.0012 26.5655 15.0104 26.6383C15.0334 26.6064 15.0656 26.6291 15.0794 26.6473C15.0702 26.6791 15.0012 26.6791 15.0196 26.711L14.9368 26.6882C15.0196 26.6973 14.992 26.7928 15.0242 26.8155C14.9551 26.8155 14.9873 26.7519 14.9459 26.7291C14.9091 26.8564 14.9275 26.7928 14.8907 26.9155C14.9321 27.0018 14.9736 26.9246 15.038 26.9791C15.0334 27.0427 15.0702 27.1154 14.9965 27.1654H15.0794C15.0978 27.2927 15.0656 27.3518 14.9643 27.4063C15.2774 28.3925 15.7285 27.8199 15.7285 27.8199C16.0046 27.5472 15.8481 27.32 15.931 26.9246C16.0875 26.6019 16.2624 26.5564 16.3314 26.1929C16.4005 26.0292 16.4327 25.8429 16.4741 25.6793C16.3867 25.5748 16.5524 25.4521 16.4834 25.3793H16.557C16.534 25.3475 16.5294 25.3157 16.5708 25.3112L16.5892 25.3203C16.557 25.2703 16.6076 25.2521 16.5938 25.2248L16.6122 25.2339L16.626 25.1975L16.6445 25.2157C16.6306 25.143 16.6674 25.0885 16.7227 25.0658L16.6583 25.0203C16.8056 24.9931 16.7181 24.8521 16.8792 24.8612L16.8884 24.8749C16.8746 24.6295 17.137 24.884 17.16 24.6658C17.1554 24.6931 17.183 24.7022 17.1922 24.7204C17.2382 24.6794 17.2981 24.6522 17.252 24.5022C17.3027 24.4931 17.3073 24.5386 17.3303 24.5976C17.3119 24.534 17.3441 24.4931 17.3809 24.484L17.3671 24.5113L17.473 24.4749L17.4269 24.3522C17.496 24.384 17.4684 24.5068 17.519 24.4704L17.5052 24.3659C17.5973 24.3931 17.5558 24.5613 17.74 24.5704Z" fill="#004A43"/>
<path d="M31.6732 26.3746L31.7095 26.3564C31.7004 26.3564 31.6868 26.3564 31.6732 26.3746Z" fill="#004A43"/>
<path d="M33.0081 25.6929L33.0131 25.7029L33.0081 25.6929Z" fill="#004A43"/>
<path d="M34.2648 24.5704C34.9966 24.6067 34.6652 23.5569 34.3154 23.5387C34.2325 23.5342 34.1681 23.5342 34.1174 23.5342C34.0714 23.5342 34.053 23.5387 34.0438 23.5387C34.03 23.5433 34.0622 23.5523 34.0438 23.5569L34.0346 23.4887C33.8965 23.5887 33.9655 23.3433 33.8182 23.4297L33.8228 23.3796L33.8045 23.5251C33.7032 23.6796 33.6985 23.3978 33.5973 23.6069C33.6525 23.5842 33.6617 23.7432 33.5881 23.7341V23.666C33.5558 23.6887 33.5513 23.716 33.5191 23.7114C33.5329 23.6705 33.5006 23.616 33.45 23.6432L33.4638 23.5569C33.4408 23.6023 33.4178 23.6569 33.3994 23.7023C33.2889 23.6614 33.206 23.7932 33.1324 23.725C33.1324 23.725 32.939 23.7705 32.9575 23.875C32.9575 23.8023 32.8516 23.8341 32.8378 23.7614C32.8332 23.8478 32.7504 23.9705 32.6537 23.9477L32.6583 23.9341C32.4282 24.0114 32.4512 24.2477 32.2532 24.3295C32.3223 24.3704 32.221 24.4249 32.3222 24.4613C32.29 24.6567 31.9402 24.6567 32.1888 24.8567C32.1658 24.9385 32.0783 24.9158 32.0415 24.9521L32.0369 24.9249C31.9954 25.0794 31.977 25.143 31.9402 25.2203C31.954 25.2748 32.0921 25.3203 32.0276 25.393C31.9816 25.3521 31.9817 25.3884 31.9679 25.4157C31.9679 25.393 31.9494 25.3839 31.8942 25.4112C31.908 25.4203 31.9172 25.4339 31.9218 25.443C31.9172 25.443 31.9126 25.443 31.908 25.4384C31.908 25.493 31.931 25.4884 31.9448 25.4702C31.954 25.4748 31.9632 25.4748 31.9816 25.4748C31.8896 25.5066 31.9356 25.6202 31.8344 25.5975C31.8021 25.7566 31.8619 25.8929 31.8573 26.0292C31.8021 26.0292 31.7699 25.9883 31.7653 25.9429L31.7515 26.0383C31.6824 26.0156 31.7285 25.9747 31.7239 25.9429C31.572 26.0156 31.7607 26.1929 31.6088 26.2883L31.6548 26.3292L31.641 26.3337C31.6686 26.3428 31.7009 26.3837 31.7055 26.4019C31.6364 26.4019 31.5628 26.361 31.5444 26.4201C31.4661 26.4519 31.5259 26.5655 31.5351 26.6383C31.5582 26.6064 31.5904 26.6291 31.6042 26.6473C31.595 26.6791 31.526 26.6791 31.5444 26.711L31.4615 26.6882C31.5443 26.6973 31.5168 26.7928 31.549 26.8155C31.4799 26.8155 31.5121 26.7519 31.4707 26.7291C31.4339 26.8564 31.4523 26.7928 31.4155 26.9155C31.4569 27.0018 31.4984 26.9246 31.5628 26.9791C31.5582 27.0427 31.595 27.1154 31.5213 27.1654H31.6042C31.6226 27.2927 31.5904 27.3518 31.4891 27.4063C31.8021 28.3925 32.2532 27.8199 32.2532 27.8199C32.5294 27.5472 32.3729 27.32 32.4557 26.9246C32.6122 26.6019 32.7872 26.5564 32.8562 26.1929C32.9253 26.0292 32.9575 25.8429 32.9989 25.6793C32.9115 25.5748 33.0771 25.4521 33.0081 25.3793H33.0817C33.0587 25.3475 33.0541 25.3157 33.0956 25.3112L33.114 25.3203C33.0818 25.2703 33.1324 25.2521 33.1186 25.2248L33.137 25.2339L33.1508 25.1975L33.1692 25.2157C33.1554 25.143 33.1922 25.0885 33.2474 25.0658L33.183 25.0203C33.3303 24.9931 33.2429 24.8521 33.404 24.8612L33.4132 24.8749C33.3993 24.6295 33.6618 24.884 33.6848 24.6658C33.6802 24.6931 33.7078 24.7022 33.717 24.7204C33.763 24.6794 33.8228 24.6522 33.7768 24.5022C33.8274 24.4931 33.8321 24.5386 33.8551 24.5976C33.8367 24.534 33.8689 24.4931 33.9057 24.484L33.8919 24.5113L33.9977 24.4749L33.9517 24.3522C34.0208 24.384 33.9931 24.5068 34.0438 24.4704L34.03 24.3659C34.1221 24.3931 34.0806 24.5613 34.2648 24.5704Z" fill="#004A43"/>
</svg>
