<svg width="48" height="48" viewBox="0 0 48 48" fill="none" xmlns="http://www.w3.org/2000/svg">
<path d="M6.11333 14.1289C19.8905 20.616 29.8419 6.738 43 14.3528L42.9699 33.1722C42.4885 33.4636 42.3509 33.5438 41.8738 33.8353C28.7328 27.4326 18.7858 41.2557 5 33.641L5.03007 14.7962C5.49862 14.5048 5.64048 14.4203 6.11333 14.1289Z" fill="#58D1BD"/>
<path d="M27.4733 20.7217L27.478 20.8061C27.4924 20.8019 27.4971 20.7766 27.4733 20.7217Z" fill="#004A43"/>
<path d="M19.9811 22.5631C19.9811 22.5547 19.9811 22.5505 19.9763 22.542C19.9811 22.5589 19.9811 22.5631 19.9811 22.5631Z" fill="#004A43"/>
<path d="M27.0874 23.6992C27.0826 23.6907 27.0826 23.6823 27.0778 23.678L27.0874 23.6992Z" fill="#004A43"/>
<path d="M26.2353 20.3584C26.3514 20.5527 26.4244 20.7216 26.4803 20.8779C26.5448 21.0299 26.5749 21.1735 26.6136 21.3129C26.6909 21.5916 26.7597 21.8788 26.8973 22.3307C26.9704 22.7742 27.0735 23.2514 27.0907 23.6991C27.2111 23.9103 27.0907 24.2862 27.1552 24.5438L27.0821 24.6367C27.1036 24.7254 27.1165 24.831 27.0735 24.9112L27.0563 24.9028C27.0821 25.0379 27.0262 25.1773 27.0391 25.2449L27.022 25.2364L27.0047 25.3927L26.9833 25.3631C26.9747 25.5912 26.936 25.8235 26.8457 26.0093L26.9231 26.0135C26.8156 26.212 26.7898 26.3599 26.7425 26.495C26.7038 26.6344 26.6652 26.7737 26.5276 26.9216L26.5147 26.9089C26.4975 27.1792 26.3556 27.327 26.2267 27.4748C26.0805 27.61 25.9516 27.7493 25.8484 27.9901C25.8742 27.9267 25.8011 27.9859 25.7925 27.969C25.6593 28.1548 25.4787 28.3068 25.5733 28.4251C25.4358 28.5265 25.4358 28.4715 25.3842 28.4377C25.4229 28.4842 25.324 28.5983 25.2122 28.6658L25.2509 28.6151C25.1477 28.6785 25.0446 28.7461 24.9371 28.8094C24.9758 28.839 25.0145 28.8601 25.0575 28.8854C24.8554 28.9403 24.95 28.7756 24.7867 28.8728L24.8253 28.9657C24.6921 29.0121 24.5717 28.991 24.4556 28.9657C24.3439 28.9488 24.2364 28.8981 24.1161 28.8685C23.6217 28.8897 23.093 28.7587 22.6244 28.4547C22.1559 28.159 21.7647 27.7029 21.5842 27.2003L21.6272 27.1243C21.7131 27.0567 21.352 26.9385 21.4208 26.8582L21.3176 26.7695C21.3219 26.7273 21.3134 26.6513 21.3606 26.7019C21.322 26.5964 21.3047 26.6006 21.2403 26.533L21.2575 26.3936C21.1543 25.9586 20.9179 25.625 20.8663 25.1393C20.8921 24.5565 20.7287 23.4879 20.7588 22.846C20.7459 22.3941 20.9007 21.9253 21.1285 21.4987C21.352 21.0679 21.6014 20.6794 21.7647 20.2697C21.7905 20.2528 21.8077 20.1768 21.7948 20.1684C21.9538 19.953 22.1258 19.7503 22.3192 19.5771C22.3192 19.5771 22.3622 19.5391 22.4353 19.4715C22.5041 19.3997 22.6116 19.3237 22.7319 19.2308C22.9769 19.0576 23.2993 18.8718 23.5701 18.7789C23.8366 18.6733 24.0516 18.6015 24 18.4748C23.9742 18.4157 23.8753 18.3523 23.6604 18.2805C23.4498 18.2256 23.1102 18.1876 22.6416 18.2932L22.6545 18.2594C22.1258 18.4537 21.855 18.7029 21.6658 19.0281C21.5197 18.9689 21.3563 19.3363 21.2489 19.4039L21.2446 19.387C21.1371 19.7038 20.7803 19.8727 20.7201 20.1937C20.7158 20.1768 20.6815 20.1515 20.7158 20.0881C20.6256 20.2951 20.5224 20.578 20.4364 20.5612C20.2301 21.0511 19.9894 21.7564 20.0581 22.1069L20.041 22.0816C20.0925 22.2843 20.0108 22.3223 20.0194 22.5377C20.0065 22.5461 19.998 22.563 19.9937 22.5588C20.0452 22.7742 19.9378 23.1501 19.9636 23.319L19.9077 23.3275V23.7329L19.9249 23.5809C20.0796 23.6358 19.8088 23.8849 19.9292 24.1806C19.912 24.4635 20.2989 24.7085 20.2473 24.9873C20.3419 25.1097 20.1097 24.8859 20.2 25.076C20.1183 25.0928 20.1312 24.9915 20.0753 25.0506C20.1484 25.2407 20.0453 25.3885 20.1484 25.6208L20.0882 25.6419C20.1828 25.7855 20.2 25.9375 20.2129 26.0811C20.2344 26.2205 20.2516 26.3472 20.3376 26.4316C20.488 26.7315 20.2387 26.7104 20.4837 26.9934L20.4579 27.1538C20.5138 27.2974 20.6041 27.2087 20.6428 27.3777C20.5912 27.3946 20.703 27.5889 20.6084 27.5255C20.7244 27.9141 21.107 28.1463 21.3477 28.6278C21.4251 28.6363 21.4982 28.6996 21.5627 28.763C21.6357 28.8221 21.7045 28.877 21.7647 28.877C21.7561 28.8981 21.8507 28.991 21.9195 29.0586C21.9925 29.122 22.0269 29.1684 21.8722 29.1135C21.8464 29.1008 21.812 29.0713 21.8292 29.0586L21.7604 29.0797C21.9324 29.3753 22.259 29.3838 22.5256 29.54C22.4525 29.4767 22.3407 29.4218 22.4353 29.426L22.6889 29.5696L22.6115 29.5908C22.7405 29.6668 22.8824 29.7217 23.0156 29.785L22.9769 29.7005C23.1661 29.8103 23.2305 29.9159 23.4928 29.8864C23.6088 29.861 23.3079 29.7554 23.5358 29.785C23.6733 29.823 23.8581 29.8695 24.0516 29.8948C24.245 29.9033 24.46 29.9244 24.6491 29.8821C24.5975 29.8188 24.7007 29.7977 24.7953 29.7597L24.8253 29.8188C25.1821 29.6203 25.0145 29.9075 25.367 29.7005L25.3541 29.7554C25.3713 29.7048 25.3842 29.6499 25.3927 29.595C25.6335 29.3162 25.6421 29.6288 25.8656 29.274C25.7496 29.3669 25.7324 29.198 25.8914 29.1177V29.1938C25.9645 29.1262 25.9774 29.0839 26.0375 29.0586C26.0075 29.1177 26.0719 29.1515 26.1751 29.0459C26.1665 29.0882 26.1622 29.1304 26.1493 29.1684C26.1966 29.0797 26.2396 28.9868 26.2826 28.8981C26.4975 28.8094 26.648 28.4969 26.7726 28.4884C26.7726 28.4884 26.8543 28.4082 26.9274 28.3068C27.0004 28.2055 27.0735 28.0872 27.0606 28.0196C27.0606 28.1252 27.2111 27.931 27.2326 28.0281C27.2369 27.8929 27.3701 27.5804 27.4862 27.4875L27.4819 27.5128C27.6324 27.3059 27.7011 27.0989 27.7527 26.9004C27.8172 26.7019 27.8516 26.5077 27.9634 26.3092C27.886 26.3049 27.9977 26.098 27.886 26.1276C27.8946 25.8995 27.9935 25.7137 28.0493 25.5532C28.1009 25.3927 28.1224 25.2576 27.9891 25.1562C28.0106 24.9577 28.088 24.9281 28.1181 24.8268L28.1267 24.8774C28.1439 24.4931 28.1482 24.3875 28.1611 24.1046C28.1353 23.9652 28.0106 23.9399 28.0321 23.6949C28.088 23.7751 28.0751 23.6738 28.0708 23.5809C28.0794 23.64 28.1009 23.6569 28.1353 23.5344C28.1181 23.5175 28.1052 23.4922 28.0966 23.4668C28.1009 23.4668 28.1052 23.4584 28.1095 23.4626C28.0837 23.3063 28.0708 23.3359 28.0622 23.4077C28.0536 23.4035 28.045 23.4119 28.0278 23.433C28.1009 23.2683 27.9848 22.9854 28.0794 22.9558C28.0106 22.487 27.8473 22.1745 27.7183 21.8113C27.7527 21.7564 27.8172 21.8366 27.8645 21.9422L27.7828 21.6761C27.8516 21.6592 27.8602 21.8197 27.8946 21.9C27.9247 21.5452 27.6109 21.2707 27.555 20.8779L27.4733 20.823V20.7977C27.4475 20.8103 27.3787 20.7427 27.3487 20.6963C27.383 20.6203 27.4776 20.6456 27.3873 20.4682C27.3744 20.3035 27.1638 20.0881 27.022 19.9361C27.0692 20.0332 27.0219 20.0205 26.9789 19.991C26.9274 19.9107 26.9489 19.8305 26.8844 19.7798L26.9446 19.7291C26.9016 19.8009 26.721 19.5687 26.6738 19.5602C26.6867 19.48 26.807 19.6531 26.8586 19.6447C26.6093 19.3321 26.7468 19.48 26.4717 19.1843C26.2826 19.0661 26.4416 19.2646 26.3213 19.235C26.1923 19.1041 26.0075 19.0365 25.8871 18.8591L25.8914 18.9562C25.5905 18.7873 25.4315 18.6775 25.2552 18.5086C24.6061 18.3523 24.2536 18.4875 24.1032 18.5719C23.9484 18.6606 23.9699 18.7409 24.0387 18.8127C24.1075 18.8887 24.2364 18.9225 24.3353 18.9816C24.4385 19.0365 24.5201 19.0661 24.5201 19.0661C24.8769 19.273 25.0876 19.3955 25.3541 19.5475C25.6292 19.7291 25.9301 19.9445 26.2353 20.3584Z" fill="#004A43"/>
<path d="M11.5986 19.2646L11.5554 19.2899C11.5641 19.2942 11.5814 19.2899 11.5986 19.2646Z" fill="#004A43"/>
<path d="M7.15796 21.486C6.7023 21.5071 6.56906 21.7394 6.61205 21.9843C6.65503 22.225 6.92154 22.4658 7.19666 22.4531C7.72969 22.3897 7.51475 22.4066 7.56203 22.3855L7.57924 22.4489C7.74259 22.3391 7.6738 22.584 7.83715 22.4784L7.83285 22.5249L7.85003 22.3855C7.97899 22.2292 7.9704 22.4953 8.09936 22.2884C8.03488 22.3137 8.03058 22.1617 8.12085 22.1701L8.11657 22.2335C8.15956 22.2124 8.16814 22.1828 8.20253 22.187C8.18533 22.225 8.21542 22.2757 8.2799 22.2462L8.25841 22.3306C8.2928 22.2842 8.3229 22.2335 8.35299 22.1828C8.47336 22.2124 8.60231 22.0857 8.67109 22.1532C8.67109 22.1532 8.72698 22.1448 8.78716 22.1237C8.84304 22.0983 8.90321 22.0603 8.90751 22.0054C8.89032 22.0772 9.01497 22.0476 9.01067 22.1237C9.03646 22.0392 9.16973 21.9252 9.2643 21.959L9.2557 21.9716C9.52221 21.9125 9.59101 21.6844 9.83603 21.6338C9.78445 21.5789 9.9091 21.5451 9.82743 21.486C9.96068 21.2832 10.3046 21.3888 10.1756 21.1101C10.2444 21.0298 10.3175 21.0805 10.3691 21.0552L10.3605 21.0847C10.498 20.9411 10.541 20.8989 10.6442 20.7975C10.6742 20.7257 10.5797 20.6286 10.6958 20.5568C10.7087 20.6202 10.7387 20.5779 10.7731 20.5441C10.7559 20.5737 10.7645 20.5906 10.8376 20.5695C10.829 20.5526 10.8333 20.5357 10.8376 20.523C10.8419 20.5272 10.8462 20.5272 10.8505 20.5315C10.8892 20.4597 10.8677 20.4554 10.8376 20.4808C10.8333 20.4723 10.8204 20.4681 10.8032 20.4681C10.9107 20.447 10.9494 20.2865 11.0267 20.333C11.1729 20.1302 11.1858 19.9317 11.2632 19.7459C11.319 19.7501 11.3277 19.8135 11.3105 19.8684L11.3749 19.7375C11.4351 19.7713 11.362 19.8262 11.3491 19.8726C11.5469 19.7839 11.4437 19.5178 11.6243 19.3827L11.5942 19.3236L11.6071 19.3151C11.5813 19.3025 11.5641 19.2475 11.5727 19.218C11.6415 19.218 11.7016 19.2771 11.7403 19.1842C11.8263 19.1335 11.8005 18.9646 11.8091 18.859C11.779 18.9055 11.7532 18.8801 11.7446 18.8505C11.7618 18.8041 11.8306 18.7956 11.8177 18.7534L11.8951 18.7745C11.8177 18.7703 11.865 18.6267 11.8349 18.6014C11.8994 18.5929 11.865 18.6901 11.8994 18.7154C11.951 18.5211 11.9252 18.6183 11.9767 18.424C11.9467 18.3057 11.8951 18.424 11.8435 18.3564C11.8521 18.2635 11.8306 18.1664 11.8951 18.0735L11.8177 18.0946C11.7962 17.9172 11.822 17.82 11.9166 17.7144C11.7016 17.0514 11.4867 17.0218 11.3577 17.0979C11.2245 17.1823 11.1514 17.3893 11.1514 17.3893C10.9408 17.7947 11.1041 18.0312 10.9752 18.5422C10.872 18.7492 10.7731 18.8632 10.6699 18.973C10.5754 19.0871 10.4894 19.2011 10.3776 19.4038C10.3132 19.4967 10.2487 19.5854 10.1799 19.6741C10.1154 19.7628 10.0595 19.8642 9.98217 19.9402C9.98647 20.0796 9.78872 20.1471 9.75863 20.2865L9.68126 20.2738C9.66836 20.3245 9.64689 20.371 9.59101 20.371L9.5824 20.3541C9.56521 20.4301 9.49214 20.4512 9.48354 20.4892L9.47493 20.4723L9.41905 20.523L9.41475 20.4977C9.35457 20.5948 9.25999 20.6624 9.16542 20.7004L9.21703 20.7553C8.9892 20.8017 8.99779 20.958 8.77856 20.9707L8.77425 20.9538C8.6324 21.2199 8.37447 21.0003 8.20253 21.2368C8.22402 21.2072 8.17673 21.2072 8.17243 21.1861C8.06926 21.241 7.95752 21.2874 8.0005 21.4268C7.91453 21.4437 7.91883 21.3973 7.89304 21.3466C7.91023 21.4057 7.84575 21.4479 7.78127 21.4648L7.80706 21.4352L7.62222 21.4986L7.68671 21.6084C7.57494 21.5958 7.63081 21.4733 7.53624 21.5197L7.55773 21.6169C7.40298 21.6127 7.42877 21.4522 7.15796 21.486Z" fill="#004A43"/>
<path d="M39.5571 18.9775L39.5312 18.9353C39.5269 18.9437 39.5312 18.9606 39.5571 18.9775Z" fill="#004A43"/>
<path d="M37.3 14.6147C37.2785 14.167 37.0421 14.036 36.7928 14.0783C36.5477 14.1205 36.3027 14.3824 36.3156 14.6527C36.3801 15.1764 36.3629 14.9652 36.3844 15.0117L36.3199 15.0285C36.4317 15.189 36.1824 15.1215 36.2898 15.282L36.2426 15.2777L36.3844 15.2946C36.5434 15.4213 36.2726 15.4129 36.4833 15.5396C36.4575 15.4762 36.6122 15.472 36.6036 15.5607L36.5392 15.5565C36.5607 15.5987 36.5907 15.6071 36.5864 15.6409C36.5478 15.624 36.4962 15.6536 36.5263 15.717L36.4403 15.6958C36.4876 15.7296 36.5392 15.7592 36.5907 15.7887C36.5607 15.907 36.6896 16.0337 36.6208 16.1013C36.6208 16.1013 36.6294 16.1562 36.6509 16.2153C36.6767 16.2702 36.7154 16.3294 36.7713 16.3336C36.6982 16.3167 36.7283 16.4392 36.6509 16.4349C36.7369 16.4603 36.8529 16.5912 36.8186 16.6841L36.8057 16.6757C36.8659 16.9375 37.098 17.0051 37.1496 17.2458C37.2054 17.1951 37.2398 17.3176 37.3 17.2374C37.5063 17.3683 37.3989 17.7062 37.6826 17.5795C37.7643 17.6471 37.7127 17.7188 37.7385 17.7695L37.7084 17.7611C37.8545 17.8962 37.8932 17.9385 38.0007 18.0398C38.0738 18.0694 38.1726 17.9765 38.2457 18.0905C38.1812 18.1032 38.2242 18.1327 38.2586 18.1665C38.2285 18.1496 38.2113 18.1581 38.2328 18.2299C38.25 18.2256 38.2672 18.2256 38.2801 18.2299C38.2758 18.2341 38.2758 18.2383 38.2715 18.2425C38.3446 18.2805 38.3489 18.2594 38.3231 18.2299C38.3317 18.2256 38.336 18.213 38.336 18.1961C38.3575 18.3017 38.5208 18.3397 38.4736 18.4157C38.6799 18.5593 38.8819 18.572 39.071 18.648C39.0667 18.7029 39.0023 18.7113 38.9464 18.6944L39.0796 18.7578C39.0453 18.8169 38.9894 18.7451 38.9421 18.7325C39.0324 18.9267 39.3032 18.8254 39.4407 19.0028L39.5009 18.9732L39.5095 18.9858C39.5224 18.9605 39.5783 18.9436 39.6084 18.9521C39.6084 19.0197 39.5482 19.0788 39.6428 19.1168C39.6944 19.2012 39.8663 19.1759 39.9738 19.1844C39.9265 19.1548 39.9523 19.1294 39.9824 19.121C40.0296 19.1379 40.0383 19.2055 40.0812 19.1928L40.0598 19.2688C40.0641 19.1928 40.2102 19.2393 40.236 19.2097C40.2446 19.2731 40.1457 19.2392 40.1199 19.273C40.3177 19.3237 40.2188 19.2984 40.4165 19.3491C40.5369 19.3195 40.4165 19.2688 40.4853 19.2181C40.5799 19.2266 40.6787 19.2055 40.7733 19.2688L40.7518 19.1928C40.9324 19.1717 41.0312 19.197 41.1387 19.2899C41.8136 19.0788 41.8437 18.8676 41.7663 18.7409C41.6803 18.61 41.4697 18.5382 41.4697 18.5382C41.057 18.3312 40.8163 18.4917 40.2962 18.365C40.0855 18.2637 39.9695 18.1665 39.8577 18.0652C39.7416 17.9722 39.6256 17.8878 39.4192 17.778C39.3247 17.7146 39.2344 17.6513 39.1441 17.5837C39.0539 17.5203 38.9507 17.4654 38.8733 17.3894C38.7315 17.3936 38.6627 17.1994 38.5208 17.1698L38.5337 17.0938C38.4821 17.0811 38.4349 17.06 38.4349 17.0051L38.452 16.9967C38.3747 16.9798 38.3532 16.9079 38.3145 16.8995L38.3317 16.8911L38.2801 16.8362L38.3059 16.8319C38.207 16.7728 38.1383 16.6799 38.0996 16.587L38.0437 16.6376C37.9964 16.4138 37.8373 16.4223 37.8245 16.2069L37.8416 16.2027C37.5708 16.0633 37.7944 15.8056 37.5536 15.6409C37.5837 15.6621 37.5837 15.6156 37.6052 15.6114C37.5493 15.51 37.502 15.4002 37.3602 15.4424C37.343 15.358 37.3903 15.3622 37.4419 15.3369C37.3817 15.3538 37.3387 15.2904 37.3215 15.2271L37.3516 15.2524L37.2871 15.0708L37.1754 15.1341C37.1882 15.0243 37.3129 15.0792 37.2656 14.9863L37.1667 15.0074C37.171 14.8554 37.3301 14.8807 37.3 14.6147Z" fill="#004A43"/>
<path d="M36.8101 28.8263L36.8533 28.801C36.8403 28.7967 36.8274 28.801 36.8101 28.8263Z" fill="#004A43"/>
<path d="M41.2461 26.609C41.7017 26.5879 41.835 26.3556 41.792 26.1106C41.749 25.8699 41.4825 25.6292 41.2074 25.6419C40.6744 25.7052 40.8893 25.6883 40.842 25.7094L40.8248 25.6461C40.6615 25.7559 40.7303 25.5109 40.5669 25.6165L40.5712 25.5701L40.554 25.7094C40.425 25.8657 40.4336 25.5996 40.3047 25.8066C40.3691 25.7812 40.3734 25.9333 40.2832 25.9248L40.2875 25.8615C40.2445 25.8826 40.2359 25.9122 40.2015 25.9079C40.2187 25.8699 40.1886 25.815 40.1241 25.8488L40.1456 25.7643C40.1112 25.8108 40.0812 25.8615 40.0511 25.9122C39.9307 25.8826 39.8017 26.0093 39.733 25.9417C39.733 25.9417 39.6771 25.9502 39.6169 25.9713C39.561 25.9966 39.5008 26.0346 39.4965 26.0895C39.5137 26.0177 39.3891 26.0473 39.3934 25.9713C39.3676 26.0558 39.2343 26.1698 39.1398 26.136L39.1483 26.1233C38.8818 26.1825 38.813 26.4105 38.568 26.4612C38.6196 26.5161 38.495 26.5499 38.5766 26.609C38.4434 26.8117 38.0995 26.7061 38.2284 26.9849C38.1597 27.0651 38.0866 27.0145 38.035 27.0398L38.0436 27.0102C37.906 27.1538 37.863 27.1961 37.7599 27.2974C37.7298 27.3692 37.8244 27.4664 37.7083 27.5382C37.6954 27.4748 37.6653 27.5171 37.6309 27.5508C37.6481 27.5213 37.6395 27.5044 37.5664 27.5255C37.575 27.5424 37.5707 27.5593 37.5664 27.5719C37.5621 27.5677 37.5578 27.5677 37.5535 27.5635C37.5149 27.6353 37.5363 27.6395 37.5664 27.6142C37.5707 27.6226 37.5836 27.6269 37.6008 27.6269C37.4934 27.648 37.4547 27.8085 37.3773 27.762C37.2311 27.9647 37.2182 28.1632 37.1409 28.3491C37.085 28.3448 37.0764 28.2815 37.0936 28.2266L37.0291 28.3575C36.9689 28.3237 37.042 28.2688 37.0549 28.2223C36.8572 28.311 36.9603 28.5771 36.7798 28.7123L36.8099 28.7714L36.797 28.7798C36.8228 28.7925 36.84 28.8474 36.8314 28.877C36.7626 28.877 36.7024 28.8178 36.6637 28.9108C36.5778 28.9614 36.6036 29.1304 36.595 29.236C36.6251 29.1895 36.6508 29.2149 36.6594 29.2444C36.6422 29.2909 36.5735 29.2993 36.5864 29.3415L36.509 29.3204C36.5864 29.3247 36.5391 29.4682 36.5691 29.4936C36.5047 29.502 36.5391 29.4049 36.5047 29.3796C36.4531 29.5738 36.4789 29.4767 36.4273 29.671C36.4574 29.7892 36.509 29.671 36.5606 29.7385C36.552 29.8315 36.5735 29.9286 36.509 30.0215L36.5864 30.0004C36.6078 30.1778 36.5821 30.2749 36.4875 30.3805C36.7024 31.0436 36.9174 31.0731 37.0463 30.9971C37.1796 30.9126 37.2526 30.7057 37.2526 30.7057C37.4633 30.3002 37.2999 30.0637 37.4289 29.5527C37.532 29.3458 37.6309 29.2317 37.7341 29.1219C37.8287 29.0079 37.9146 28.8939 38.0264 28.6912C38.0909 28.5982 38.1554 28.5095 38.2241 28.4209C38.2886 28.3322 38.3445 28.2308 38.4219 28.1548C38.4176 28.0154 38.6153 27.9478 38.6454 27.8085L38.7228 27.8211C38.7357 27.7705 38.7572 27.724 38.813 27.724L38.8217 27.7409C38.8388 27.6649 38.9119 27.6438 38.9205 27.6057L38.9291 27.6226L38.985 27.5719L38.9893 27.5973C39.0495 27.5002 39.144 27.4326 39.2386 27.3946L39.187 27.3397C39.4149 27.2932 39.4063 27.1369 39.6255 27.1243L39.6298 27.1412C39.7717 26.8751 40.0296 27.0947 40.2015 26.8582C40.18 26.8878 40.2273 26.8878 40.2316 26.9089C40.3348 26.854 40.4465 26.8075 40.4036 26.6681C40.4895 26.6512 40.4852 26.6977 40.511 26.7484C40.4938 26.6893 40.5583 26.647 40.6228 26.6301L40.597 26.6597L40.7818 26.5963L40.7173 26.4865C40.8291 26.4992 40.7732 26.6217 40.8678 26.5752L40.8463 26.4781C41.001 26.4823 40.9753 26.6386 41.2461 26.609Z" fill="#004A43"/>
<path d="M8.84717 29.1177L8.87311 29.16C8.87743 29.1473 8.87311 29.1346 8.84717 29.1177Z" fill="#004A43"/>
<path d="M11.104 33.4805C11.1255 33.9282 11.362 34.0591 11.6113 34.0169C11.8563 33.9746 12.1013 33.7128 12.0884 33.4425C12.024 32.9188 12.0411 33.13 12.0197 33.0835L12.0841 33.0666C11.9724 32.9061 12.2217 32.9737 12.1142 32.8132L12.1615 32.8174L12.0197 32.8005C11.8606 32.6738 12.1314 32.6823 11.9208 32.5556C11.9466 32.6189 11.7918 32.6231 11.8004 32.5345L11.8649 32.5387C11.8434 32.4965 11.8133 32.488 11.8176 32.4542C11.8563 32.4711 11.9079 32.4415 11.8778 32.3782L11.9638 32.3993C11.9165 32.3655 11.8649 32.336 11.8133 32.3064C11.8434 32.1881 11.7145 32.0614 11.7832 31.9939C11.7832 31.9939 11.7746 31.939 11.7531 31.8798C11.7273 31.8249 11.6887 31.7658 11.6328 31.7616C11.7059 31.7785 11.6758 31.656 11.7531 31.6602C11.6672 31.6349 11.5511 31.504 11.5855 31.411L11.5984 31.4195C11.5382 31.1576 11.3061 31.0901 11.2545 30.8493C11.1986 30.9 11.1642 30.7775 11.104 30.8578C10.8977 30.7269 11.0052 30.389 10.7215 30.5157C10.6398 30.4481 10.6914 30.3763 10.6656 30.3256L10.6957 30.3341C10.5495 30.1989 10.5108 30.1567 10.4034 30.0553C10.3303 30.0258 10.2314 30.1187 10.1584 30.0047C10.2228 29.992 10.1798 29.9624 10.1455 29.9286C10.1755 29.9455 10.1927 29.9371 10.1712 29.8653C10.154 29.8737 10.1369 29.8695 10.124 29.8653C10.1283 29.8611 10.1282 29.8568 10.1325 29.8526C10.0595 29.8146 10.0552 29.8357 10.081 29.8653C10.0724 29.8695 10.0681 29.8822 10.0681 29.8991C10.0466 29.7935 9.88324 29.7555 9.93052 29.6794C9.72419 29.5359 9.52214 29.5232 9.333 29.4472C9.3373 29.3923 9.3975 29.3838 9.45768 29.4007L9.32442 29.3374C9.35881 29.2782 9.41467 29.35 9.46196 29.3627C9.37169 29.1684 9.10088 29.2698 8.96333 29.0924L8.90314 29.122L8.89456 29.1093C8.88166 29.1346 8.82576 29.1515 8.79567 29.1431C8.79567 29.0755 8.85587 29.0164 8.7613 28.9784C8.70972 28.8939 8.53776 28.9192 8.4303 28.9108C8.47758 28.9403 8.45178 28.9657 8.42169 28.9741C8.37441 28.9573 8.36582 28.8897 8.32283 28.9024L8.34432 28.8263C8.34002 28.9023 8.19388 28.8559 8.16809 28.8854C8.15949 28.8221 8.25834 28.8559 8.28413 28.8221C8.0864 28.7714 8.18526 28.7968 7.98753 28.7461C7.86716 28.7757 7.98754 28.8263 7.91876 28.877C7.82419 28.8686 7.72533 28.8897 7.63076 28.8263L7.65224 28.9024C7.4717 28.9235 7.37282 28.8981 7.26536 28.8052C6.59047 29.0164 6.5604 29.2275 6.63777 29.3542C6.72374 29.4852 6.93438 29.557 6.93438 29.557C7.34705 29.7639 7.58776 29.6034 8.1079 29.7301C8.31853 29.8315 8.43461 29.9286 8.54637 30.03C8.66243 30.1229 8.77848 30.2074 8.98481 30.3172C9.07938 30.3805 9.16966 30.4439 9.25993 30.5115C9.3502 30.5748 9.45337 30.6297 9.53075 30.7015C9.67261 30.6973 9.74139 30.8916 9.88324 30.9211L9.87033 30.9971C9.92192 31.0098 9.96922 31.0309 9.96922 31.0858L9.95201 31.0943C10.0294 31.1112 10.0509 31.183 10.0896 31.1914L10.0724 31.1999L10.124 31.2548L10.0982 31.259C10.197 31.3181 10.2658 31.411 10.3045 31.504L10.3604 31.4533C10.4077 31.6771 10.5667 31.6687 10.5796 31.8841L10.5624 31.8883C10.8332 32.0276 10.6097 32.281 10.8504 32.45C10.8203 32.4289 10.8203 32.4753 10.7989 32.4796C10.8547 32.5809 10.902 32.6907 11.0439 32.6485C11.0611 32.733 11.0138 32.7287 10.9622 32.7541C11.0224 32.7372 11.0654 32.8005 11.0826 32.8639L11.0525 32.8385L11.117 33.0202L11.2287 32.9568C11.2158 33.0666 11.0912 33.0159 11.1384 33.1046L11.2373 33.0835C11.2373 33.2398 11.074 33.2144 11.104 33.4805Z" fill="#004A43"/>
</svg>
