<svg width="48" height="49" viewBox="0 0 48 49" fill="none" xmlns="http://www.w3.org/2000/svg">
<path d="M35.6621 26.8526C33.5046 23.8742 30.0312 20.477 28.1501 18.7134C28.0221 18.5928 27.9213 18.4455 27.8548 18.2816C27.7882 18.1177 27.7574 17.9411 27.7644 17.764C27.7715 17.5868 27.8162 17.4134 27.8956 17.2555C27.975 17.0976 28.0872 16.959 28.2243 16.8493C30.3023 15.2226 32.2348 13.4129 33.9996 11.4413C36.0127 9.1165 33.4262 6.24705 30.9635 7.75508C29.9446 8.38343 29.0164 8.87772 28.014 8.6976C27.1147 8.5468 26.6403 7.98128 26.038 7.18119C25.8054 6.84499 25.4966 6.57056 25.1376 6.38112C24.7786 6.19167 24.38 6.09277 23.9754 6.09277C23.5708 6.09277 23.1721 6.19167 22.8131 6.38112C22.4541 6.57056 22.1453 6.84499 21.9128 7.18119C21.294 7.98128 20.8196 8.5468 19.9203 8.71017C18.9179 8.89029 17.9897 8.39599 16.9708 7.76765C14.4874 6.24705 11.8885 9.1165 13.8892 11.4413C15.654 13.4129 17.5866 15.2226 19.6645 16.8493C19.8017 16.959 19.9138 17.0976 19.9932 17.2555C20.0726 17.4134 20.1174 17.5868 20.1245 17.764C20.1315 17.9411 20.1007 18.1177 20.0341 18.2816C19.9675 18.4455 19.8668 18.5928 19.7388 18.7134C17.8577 20.477 14.376 23.8742 12.2268 26.8526C9.13287 31.1295 7.49104 35.0085 9.75165 38.5817C12.0659 42.2596 15.5476 42.6492 23.9382 42.6492C32.3289 42.6492 35.8106 42.2596 38.1248 38.5817C40.3978 35.0085 38.756 31.1295 35.6621 26.8526Z" fill="#7D77FC"/>
<path d="M25.6254 18.8936L25.5883 18.8684L25.6254 18.8936Z" fill="#004A43"/>
<path d="M24.26 18.0348L24.2683 18.0264L24.26 18.0348Z" fill="#004A43"/>
<path d="M21.2693 17.6535C21.2179 17.6163 21.1595 17.5904 21.0977 17.5774C21.0359 17.5644 20.9721 17.5647 20.9104 17.5781C20.7915 17.608 20.6887 17.6838 20.624 17.7894C20.5593 17.895 20.5377 18.0221 20.5639 18.1436C20.5739 18.2112 20.5988 18.2757 20.6366 18.3323C20.6744 18.3888 20.7243 18.436 20.7825 18.4704C20.8775 18.539 20.9836 18.59 21.096 18.6212L21.0754 18.684C21.261 18.6631 21.0754 18.8348 21.2652 18.8348L21.2363 18.8683L21.3188 18.7636C21.4921 18.6966 21.3559 18.9144 21.5539 18.8013C21.4921 18.8013 21.5539 18.6589 21.6282 18.705L21.5952 18.7594C21.6364 18.7594 21.6571 18.7385 21.6818 18.7594C21.7066 18.7804 21.6447 18.839 21.7066 18.8474L21.6488 18.9102L21.7891 18.8348C21.8633 18.927 22.016 18.8767 22.0366 18.9689C22.0366 18.9689 22.2181 19.0526 22.2758 18.9689C22.2305 19.0191 22.3295 19.0652 22.2758 19.1238C22.3377 19.0694 22.4904 19.0401 22.5357 19.1238C22.742 19.2328 22.9111 19.0903 23.0968 19.1951C23.0968 19.1197 23.1916 19.1699 23.1751 19.0736C23.3731 19.0107 23.5258 19.2956 23.5877 19.0149C23.6784 19.0149 23.6908 19.0861 23.7403 19.1071H23.7155C23.8308 19.0968 23.9468 19.0968 24.0621 19.1071C24.1239 19.0778 24.1322 18.9437 24.2436 18.9772C24.2064 19.0317 24.2436 19.0233 24.2931 19.0233C24.2683 19.0233 24.2601 19.0484 24.3178 19.0861C24.327 19.0771 24.3381 19.0705 24.3503 19.0669C24.3626 19.0632 24.3755 19.0626 24.388 19.0652C24.4581 19.0652 24.4457 19.0317 24.4127 19.0233C24.3797 19.0149 24.4127 19.0024 24.4127 18.9898C24.487 19.061 24.6148 18.9898 24.6272 19.0736C24.8061 19.0289 24.9812 18.97 25.1511 18.8976C25.1759 18.9437 25.1511 18.9856 25.0892 19.0107L25.213 18.9814C25.213 19.0484 25.147 19.0275 25.1099 19.0443C25.2707 19.1364 25.4028 18.906 25.5884 18.9898L25.6173 18.9312C25.6186 18.9138 25.6242 18.897 25.6336 18.8824C25.643 18.8677 25.6558 18.8557 25.6709 18.8474C25.7039 18.8976 25.6709 18.9772 25.7781 18.9605C25.8854 18.9437 25.9679 18.9018 26.0504 18.8599C26.0009 18.8599 26.0092 18.8222 26.0257 18.7971C26.0422 18.772 26.104 18.839 26.1329 18.7971L26.1577 18.8725C26.1205 18.8013 26.2484 18.7678 26.2567 18.7301C26.2979 18.7845 26.203 18.7971 26.203 18.8432L26.4629 18.7678C26.5413 18.6882 26.4258 18.7008 26.4629 18.6254C26.5001 18.55 26.5991 18.5081 26.7063 18.5206L26.6527 18.4662C26.6998 18.4246 26.755 18.3934 26.8147 18.3747C26.8743 18.3559 26.9372 18.35 26.9992 18.3573C27.0762 18.2842 27.1379 18.1961 27.1804 18.0982C27.223 18.0002 27.2455 17.8946 27.2467 17.7876C27.2453 17.7453 27.2311 17.7045 27.206 17.6708C27.1809 17.637 27.1461 17.612 27.1065 17.5991C27.0449 17.5744 26.9786 17.5643 26.9126 17.5697H26.8218C26.4588 17.5697 26.3557 17.8211 25.9019 17.9886C25.5752 17.9614 25.2468 17.9614 24.9201 17.9886C24.7056 17.9886 24.487 18.0263 24.2807 18.0347C24.1858 18.1394 24.0084 18.0347 23.8929 18.1143L23.8475 18.0515C23.8303 18.0665 23.8084 18.0748 23.7857 18.0748C23.763 18.0748 23.741 18.0665 23.7238 18.0515C23.666 18.0934 23.5959 18.0515 23.567 18.0808H23.4928V18.0557C23.3948 18.0953 23.2855 18.0953 23.1875 18.0557V18.1311C22.9936 18.0263 22.907 18.1688 22.7379 18.0389C22.4821 18.1939 22.4078 17.842 22.148 17.9677C22.181 17.9677 22.148 17.93 22.148 17.9132C22.0366 17.9132 21.9335 17.8839 21.8963 18.0221C21.8221 17.997 21.8468 17.9593 21.8509 17.9049C21.8509 17.9635 21.7643 17.9719 21.7066 17.9551H21.7396C21.6818 17.9551 21.6241 17.9342 21.5704 17.9174V18.0431C21.4962 17.9719 21.5952 17.8965 21.5086 17.8881L21.4756 17.9803C21.3765 17.8713 21.4549 17.7624 21.2693 17.6535Z" fill="#004A43"/>
<path d="M26.0751 34.6903H26.2071C26.2071 34.6903 26.1658 34.661 26.0751 34.6903Z" fill="#004A43"/>
<path d="M26.6732 30.5222L26.6815 30.5264L26.7227 30.5348L26.6732 30.5222Z" fill="#004A43"/>
<path d="M25.9431 26.6054C26.4908 26.8543 27.0201 27.1427 27.5272 27.4684C27.8119 27.6401 27.9397 27.6401 27.9892 27.4684C27.979 27.1902 27.8723 26.9247 27.6881 26.7185C27.3906 26.3472 27.014 26.0493 26.5867 25.8472C26.1723 25.6413 25.7344 25.4879 25.2831 25.3906C25.213 25.3906 25.3615 25.42 25.2831 25.3906V25.3487C24.9407 25.3194 24.8706 25.2775 24.8293 25.2315C24.7881 25.1854 24.7138 25.1309 24.3673 25.1351L24.4333 25.0974L24.2435 25.2147C24.0888 25.2619 23.9239 25.2619 23.7691 25.2147C23.5939 25.1756 23.4107 25.1977 23.2494 25.2775C23.5134 25.2524 23.3855 25.399 23.0637 25.4116L23.1091 25.3487C22.9941 25.381 22.8769 25.4048 22.7585 25.42C22.8575 25.3697 22.7997 25.3236 22.5398 25.3823L22.7007 25.2733C22.5398 25.3404 22.3831 25.4074 22.2263 25.487C21.8336 25.5792 21.4498 25.7067 21.0795 25.8682L20.9558 25.9394C20.8562 25.9978 20.7611 26.0636 20.6711 26.1363C20.5706 26.2223 20.4768 26.3162 20.3906 26.4169C20.3308 26.4925 20.2834 26.5773 20.2503 26.6683C20.2875 26.5761 20.2132 26.6264 20.1472 26.6934C20.0812 26.7604 20.007 26.8442 20.0193 26.7562C19.9439 26.9642 19.8873 27.1787 19.8502 27.3972C19.814 27.6358 19.792 27.8764 19.7842 28.1177V28.0548C19.7887 28.352 19.8744 28.642 20.0317 28.8926C20.1633 29.1063 20.3292 29.296 20.5226 29.4539C20.867 29.7099 21.2296 29.9396 21.6075 30.1409C21.6075 30.0613 22.0201 30.275 21.9334 30.1409C22.7585 30.3755 23.3649 30.807 23.7238 30.6059C23.9321 30.6583 24.133 30.7371 24.3219 30.8405H24.2312C24.6764 30.9339 25.1147 31.0585 25.543 31.2133C25.7822 31.272 25.8689 31.1505 26.2649 31.3599C26.1164 31.3599 26.2649 31.4144 26.4299 31.4856C26.3309 31.4479 26.2979 31.4521 26.4712 31.5736C26.5111 31.5763 26.5502 31.5863 26.5867 31.6029C26.8259 31.7118 26.7888 31.6825 26.6898 31.6029C26.6898 31.6029 26.6898 31.6029 26.6898 31.5526C26.9084 31.7411 27.3003 31.9715 27.2467 32.0804C27.4714 32.2945 27.6183 32.5794 27.6633 32.8889C27.7314 33.1703 27.6993 33.4671 27.5726 33.7267C27.4942 33.756 27.5437 33.622 27.5726 33.467C27.5319 33.5942 27.472 33.7143 27.3952 33.823C27.3498 33.7812 27.5025 33.6136 27.5231 33.4963C27.3919 33.7026 27.2458 33.8986 27.0858 34.0828C26.8823 34.3071 26.6183 34.4659 26.3268 34.5394L26.2236 34.6399H26.1824C26.1824 34.6608 26.0669 34.7488 25.9761 34.7865C25.8689 34.753 25.9431 34.6566 25.6296 34.7404C25.3697 34.7404 24.9118 34.8954 24.5612 34.9415C24.7509 34.9415 24.6932 34.975 24.6107 35.0001C24.4416 35.0001 24.3425 34.9499 24.1982 35.0001V34.9206C24.26 34.996 23.7856 34.9876 23.699 35.0043C23.6124 34.9415 23.963 34.9792 24.0043 34.9289C23.8386 34.9273 23.6733 34.9147 23.5093 34.8912C23.4268 34.8912 23.3484 34.8703 23.0225 34.8158C22.6966 34.7614 23.0679 34.9038 22.8905 34.9289C22.5569 34.8919 22.2327 34.794 21.9334 34.6399L22.0159 34.7488C21.5697 34.6336 21.164 34.3942 20.8444 34.0576C20.4564 33.8217 20.1185 33.5098 19.8502 33.1402C19.706 32.9313 19.5856 32.7065 19.4913 32.47C19.3675 32.1516 19.2892 32.1558 19.2438 32.3611C19.1879 32.666 19.2165 32.9807 19.3263 33.2701C19.3715 33.4067 19.4295 33.5386 19.4996 33.6639C19.5253 33.7181 19.5557 33.77 19.5903 33.8189C19.8453 34.2343 20.1859 34.5887 20.5886 34.8577C20.9298 35.089 21.3003 35.2722 21.69 35.4023C22.5877 35.7121 23.5368 35.8388 24.4828 35.7751C25.2809 35.7949 26.076 35.6686 26.83 35.4023C27.196 35.2679 27.5344 35.0663 27.8284 34.8075C28.2608 34.4372 28.5442 33.9183 28.6245 33.3497C28.6649 33.0214 28.6411 32.6883 28.5544 32.3695C28.46 32.0468 28.2966 31.7493 28.0759 31.4982C27.6833 31.0797 27.2063 30.7524 26.6774 30.5389C26.0987 30.3285 25.5077 30.155 24.9077 30.0195L24.7221 29.9064C24.5255 29.8935 24.332 29.8497 24.1487 29.7765C23.8723 29.7556 23.5959 29.655 23.4639 29.6424L23.1875 29.5377H23.2452C22.8143 29.4622 22.3971 29.321 22.0077 29.1188V29.1984C21.7367 29.0462 21.4737 28.8798 21.2198 28.6999C21.1192 28.6367 21.0343 28.551 20.9714 28.4494C20.9084 28.3478 20.8692 28.2329 20.8567 28.1135C20.7752 27.9703 20.7529 27.8 20.7949 27.6401C20.8298 27.4945 20.9008 27.3604 21.0011 27.2505C21.2654 27.0011 21.5528 26.778 21.8592 26.5845C21.7602 26.6515 21.9211 26.5845 21.9211 26.6222C22.3047 26.4379 22.7791 26.3415 22.7461 26.2033C23.0802 26.1447 23.0266 26.2033 23.0761 26.2536C23.0761 26.1907 23.3525 26.1321 23.6206 26.1195L23.4969 26.1488C23.7483 26.1322 24.0004 26.1322 24.2518 26.1488L24.1115 26.0232C24.5241 26.0902 24.2023 26.1698 24.5818 26.1865V26.0902C24.7561 26.1195 24.923 26.1835 25.0727 26.2787C25.3563 26.4048 25.6469 26.5139 25.9431 26.6054Z" fill="#004A43"/>
<path d="M24.5322 27.0244L24.5034 27.0914C24.5034 27.0914 24.5281 27.0663 24.5322 27.0244Z" fill="#004A43"/>
<path d="M23.6331 36.2651C23.6001 38.104 24.5571 37.2704 24.5736 36.3949C24.5901 35.5194 24.5736 35.8671 24.5736 35.7875H24.6355C24.5571 35.4943 24.7757 35.6786 24.7139 35.3686L24.7551 35.3938L24.6272 35.3184C24.5117 35.0545 24.7592 35.1759 24.5984 34.8995C24.5984 35.0168 24.4581 34.9539 24.4911 34.8115L24.5489 34.8492C24.5489 34.7696 24.5117 34.7445 24.5241 34.69C24.5571 34.7361 24.6107 34.7152 24.6025 34.5979L24.6767 34.6775L24.5695 34.4596C24.6396 34.2879 24.5695 34.0407 24.6479 33.9528C24.6479 33.9528 24.6974 33.5883 24.6066 33.5045C24.6602 33.5799 24.6891 33.3789 24.7551 33.4333C24.7149 33.3606 24.6904 33.2801 24.6833 33.197C24.6762 33.1139 24.6866 33.0303 24.7139 32.9516C24.7922 32.5327 24.6314 32.2479 24.7139 31.8792C24.6396 31.8792 24.685 31.6991 24.5901 31.7494C24.5076 31.364 24.7922 31.0498 24.5117 30.9116C24.5117 30.7398 24.5819 30.7063 24.5984 30.6183V30.6602C24.5864 30.4398 24.5864 30.2188 24.5984 29.9984C24.5736 29.8769 24.4457 29.8559 24.4787 29.6423C24.5324 29.7093 24.5241 29.6423 24.5241 29.5418C24.5241 29.592 24.5489 29.6088 24.586 29.5041C24.5702 29.4861 24.5589 29.4646 24.553 29.4412C24.553 29.303 24.52 29.3281 24.5117 29.391C24.5117 29.391 24.5117 29.391 24.4787 29.4119C24.5489 29.2737 24.4787 29.0223 24.5736 28.993C24.5736 28.5741 24.4746 28.2935 24.4457 27.9583C24.4911 27.9206 24.5324 28.0002 24.5489 28.0966V27.8578C24.6149 27.8578 24.5819 27.996 24.5942 28.0673C24.7056 27.7824 24.4993 27.4808 24.5942 27.1457L24.5447 27.0745C24.5159 27.0745 24.4787 27.0033 24.4705 26.953C24.5324 26.9069 24.6066 26.953 24.6066 26.7896C24.6066 26.6262 24.5819 26.4168 24.5571 26.245C24.5571 26.3372 24.5117 26.3079 24.4952 26.2702C24.4787 26.2325 24.553 26.1361 24.5282 26.0733H24.6066C24.5324 26.1068 24.5324 25.8597 24.4993 25.8262C24.5571 25.7801 24.5489 25.956 24.5901 25.977V25.4785C24.5324 25.3025 24.5158 25.512 24.4457 25.424C24.4146 25.2636 24.4146 25.0985 24.4457 24.9381L24.3756 24.9925C24.3228 24.7717 24.3357 24.5399 24.4127 24.3265C23.8888 22.1315 23.6496 23.8615 23.6496 23.8615C23.4804 24.7245 23.6743 25.1727 23.7114 26.199C23.6154 26.8887 23.5658 27.5843 23.5629 28.2809C23.5629 28.7249 23.5629 29.2025 23.5629 29.6381C23.6661 29.8476 23.5629 30.212 23.6372 30.4759L23.5753 30.5681C23.608 30.6543 23.608 30.7499 23.5753 30.8362C23.6207 30.9618 23.5753 31.1043 23.6124 31.1671V31.3179L23.5877 31.2928C23.6205 31.5065 23.6205 31.7241 23.5877 31.9379H23.6578C23.5712 32.3568 23.7156 32.5243 23.6166 32.9097C23.7981 33.3998 23.4763 33.6805 23.6454 34.1664C23.6454 34.1036 23.6083 34.1957 23.5918 34.1873C23.5918 34.4219 23.6124 34.6691 23.7527 34.6691C23.7527 34.8408 23.7073 34.8073 23.6537 34.8283C23.7156 34.8283 23.7362 34.9749 23.7362 35.1089V35.0461V35.4231L23.8558 35.3477C23.8187 35.5488 23.7114 35.4021 23.7362 35.5907H23.8352C23.7939 35.821 23.6454 35.7247 23.6331 36.2651Z" fill="#004A43"/>
</svg>
