<svg width="24" height="25" viewBox="0 0 24 25" fill="none" xmlns="http://www.w3.org/2000/svg">
<g clip-path="url(#clip0_1_236)">
<path fill-rule="evenodd" clip-rule="evenodd" d="M0 12.5264C0 5.89895 5.37258 0.526367 12 0.526367C18.6274 0.526367 24 5.89895 24 12.5264C24 19.1538 18.6274 24.5264 12 24.5264C5.37258 24.5264 0 19.1538 0 12.5264ZM8.48034 10.4653H5.76087V18.6362H8.48034V10.4653ZM8.65928 7.93772C8.64163 7.13657 8.06873 6.52637 7.13842 6.52637C6.20811 6.52637 5.5999 7.13657 5.5999 7.93772C5.5999 8.72227 6.19013 9.35004 7.10312 9.35004H7.1205C8.06873 9.35004 8.65928 8.72227 8.65928 7.93772ZM18.2879 13.9512C18.2879 11.4415 16.9463 10.2734 15.1568 10.2734C13.7129 10.2734 13.0665 11.0665 12.7055 11.6228V10.4655H9.98575C10.0216 11.2322 9.98575 18.6364 9.98575 18.6364H12.7055V14.0731C12.7055 13.8289 12.7232 13.5853 12.7951 13.4104C12.9916 12.9226 13.4391 12.4175 14.1904 12.4175C15.1749 12.4175 15.5684 13.1667 15.5684 14.2647V18.6361H18.2878L18.2879 13.9512Z" fill="white"/>
</g>
<defs>
<clipPath id="clip0_1_236">
<rect width="24" height="25" fill="white"/>
</clipPath>
</defs>
</svg>
