<svg width="24" height="25" viewBox="0 0 24 25" fill="none" xmlns="http://www.w3.org/2000/svg">
<g clip-path="url(#clip0_1_240)">
<path fill-rule="evenodd" clip-rule="evenodd" d="M0 12.5264C0 5.89895 5.37258 0.526367 12 0.526367C18.6274 0.526367 24 5.89895 24 12.5264C24 19.1538 18.6274 24.5264 12 24.5264C5.37258 24.5264 0 19.1538 0 12.5264ZM11.6406 10.2801L11.6658 10.6953L11.2461 10.6445C9.71843 10.4496 8.38383 9.78862 7.25067 8.67853L6.69668 8.12772L6.55399 8.53447C6.25181 9.44119 6.44487 10.3988 7.0744 11.0428C7.41015 11.3987 7.33461 11.4495 6.75544 11.2377C6.55399 11.1699 6.37772 11.119 6.36093 11.1445C6.30218 11.2038 6.50362 11.9749 6.66311 12.28C6.88134 12.7037 7.32621 13.1189 7.81305 13.3647L8.22434 13.5596L7.73751 13.568C7.26746 13.568 7.25067 13.5765 7.30103 13.7545C7.46891 14.3053 8.13201 14.89 8.87066 15.1442L9.39108 15.3222L8.93781 15.5933C8.26631 15.9831 7.4773 16.2035 6.68829 16.2204C6.31057 16.2289 6 16.2628 6 16.2882C6 16.3729 7.02404 16.8475 7.61999 17.0339C9.40786 17.5847 11.5315 17.3475 13.1263 16.4068C14.2595 15.7374 15.3926 14.407 15.9214 13.1189C16.2068 12.4325 16.4922 11.1784 16.4922 10.5767C16.4922 10.1869 16.5174 10.1361 16.9874 9.66999C17.2644 9.39882 17.5246 9.10223 17.575 9.01749C17.6589 8.85648 17.6505 8.85648 17.2224 9.00054C16.509 9.25476 16.4083 9.22087 16.7608 8.83953C17.021 8.56837 17.3316 8.07687 17.3316 7.93281C17.3316 7.90739 17.2057 7.94976 17.063 8.02603C16.9119 8.11077 16.5761 8.23788 16.3243 8.31414L15.8711 8.4582L15.4598 8.17856C15.2331 8.02603 14.9142 7.85655 14.7463 7.8057C14.3182 7.68707 13.6635 7.70401 13.2774 7.8396C12.2282 8.22093 11.5651 9.20392 11.6406 10.2801Z" fill="white"/>
</g>
<defs>
<clipPath id="clip0_1_240">
<rect width="24" height="25" fill="white"/>
</clipPath>
</defs>
</svg>
