<svg width="28" height="28" viewBox="0 0 28 28" fill="none" xmlns="http://www.w3.org/2000/svg">
<g clip-path="url(#clip0_1_66)">
<path d="M14 28C21.732 28 28 21.732 28 14C28 6.26801 21.732 0 14 0C6.26801 0 0 6.26801 0 14C0 21.732 6.26801 28 14 28Z" fill="#004A43"/>
<path d="M21 1.87565C19.2474 0.863783 17.2963 0.243908 15.281 0.0587328C13.2658 -0.126442 11.2344 0.127488 9.3267 0.803021C7.41905 1.47856 5.68053 2.55964 4.23093 3.97177C2.78133 5.38391 1.65511 7.09354 0.929875 8.98285C0.204636 10.8722 -0.102382 12.8962 0.0299767 14.9156C0.162334 16.935 0.730922 18.9017 1.69656 20.6802C2.6622 22.4587 4.00193 24.0067 5.62345 25.2176C7.24497 26.4284 9.10973 27.2733 11.0892 27.6941L14 14L21 1.87565Z" fill="#58D1BD"/>
</g>
<defs>
<clipPath id="clip0_1_66">
<rect width="28" height="28" fill="white"/>
</clipPath>
</defs>
</svg>
