<svg width="125" height="20" viewBox="0 0 125 20" fill="none" xmlns="http://www.w3.org/2000/svg">
<g clip-path="url(#clip0_1_247)">
<path d="M11.9417 11.6209C13.0145 11.6209 13.6128 10.9171 13.6128 9.38437V0.109375H16.3052V19.5882H13.5118C13.5118 19.5882 8.50036 12.4998 6.57963 9.9113C5.75646 8.78053 5.30867 8.07668 4.38451 8.07668C3.31172 8.07668 2.7134 8.78053 2.7134 10.3132V19.5882H0.0209351V0.109375H2.81439C2.81439 0.109375 7.82582 7.19783 9.74655 9.7863C10.5697 10.9171 11.0175 11.6209 11.9417 11.6209Z" fill="white"/>
<path d="M32.2637 12.3404C32.2637 16.4674 29.8457 19.8904 25.5564 19.8904C21.2176 19.8904 18.7995 16.4674 18.7995 12.3404C18.7995 8.28851 21.2176 4.81543 25.5564 4.81543C29.8437 4.81543 32.2637 8.28851 32.2637 12.3404ZM29.5941 12.3404C29.5941 10.05 27.9973 8.71735 25.5545 8.71735C23.0602 8.71735 21.4653 10.052 21.4653 12.3404C21.4653 14.7308 23.0621 15.9904 25.5545 15.9904C27.9992 15.9904 29.5941 14.7308 29.5941 12.3404Z" fill="white"/>
<path d="M45.6021 14.8656V8.89248H43.3079C40.564 8.89248 38.8948 9.1694 37.9459 10.8059C37.4962 11.5867 37.3971 12.5425 37.3971 13.9771V19.5886H34.7047V5.11748H37.3971V8.79248C38.146 6.27517 39.7656 5.11748 42.6582 5.11748H45.6002V1.41748H48.2927V5.11748H53.7233V8.89248H48.2927V13.7636" fill="white"/>
<path d="M57.1513 19.5882V0.109375H59.8437V8.84207C60.4421 6.52668 62.1627 4.86514 64.8552 4.86514C67.9726 4.86514 70.0915 7.30553 70.0915 10.7786V19.5863H67.399V12.5901C67.399 11.6844 67.2999 10.9536 66.8007 10.2498C66.1528 9.34399 65.1791 8.89014 63.7843 8.89014C62.2389 8.89014 60.7679 9.44399 60.0934 11.3055C59.8437 12.0094 59.8437 13.1421 59.8437 14.3498V19.5844H57.1513V19.5882Z" fill="white"/>
<path d="M88.7024 14.8656V8.89248H86.4081V5.11748H88.7024V1.41748H91.3948V5.11748H96.8254V8.89248H91.3948V13.7636" fill="white"/>
<path d="M109.718 19.5885V16.8712C108.895 18.7077 107.424 19.8904 105.28 19.8904C101.416 19.8904 99.3445 16.5943 99.3445 12.3654C99.3445 8.21351 101.414 4.81543 105.28 4.81543C107.424 4.81543 108.897 6.02312 109.718 7.85966V5.11735H112.41V19.5885H109.718ZM109.718 12.3404C109.718 10.05 108.173 8.71735 105.878 8.71735C103.535 8.71735 102.014 10.052 102.014 12.3404C102.014 14.7308 103.535 15.9904 105.878 15.9904C108.173 15.9904 109.718 14.7308 109.718 12.3404Z" fill="white"/>
<path d="M115.877 19.5883V5.11719H118.569V8.79219C119.318 6.27488 120.937 5.11719 123.83 5.11719H124.977V8.89219H124.478C121.736 8.89219 120.065 9.16911 119.116 10.8056C118.666 11.5864 118.567 12.5422 118.567 13.9768V19.5883H115.877Z" fill="white"/>
<path d="M91.3948 13.7635C91.3948 14.9885 91.8483 15.9981 93.5842 15.9981C95.141 15.9981 95.8232 15.2058 95.8232 13.75H97.6925C97.9516 17.7269 96.5816 19.8904 93.346 19.8904C90.1258 19.8904 88.7005 17.4577 88.7005 14.8654" fill="white"/>
<path d="M48.2965 13.7635C48.2965 14.9885 48.75 15.9981 50.4859 15.9981C52.0427 15.9981 52.7249 15.2058 52.7249 13.75H54.5941C54.8533 17.7269 53.4832 19.8904 50.2477 19.8904C47.0274 19.8904 45.6021 17.4577 45.6021 14.8654" fill="white"/>
<path d="M85.3125 15.4116C85.3125 17.3616 83.9101 19.8904 79.2778 19.8904C74.2397 19.8904 72.3609 16.9712 72.4848 13.75H74.354C74.354 14.5558 74.838 15.1347 75.4116 15.4866C76.4463 16.1 78.0888 16.1904 79.4608 16.1904C81.1547 16.1904 82.6258 15.7443 82.6258 14.8231C82.6258 14.3154 82.3228 13.9 81.3662 13.725C80.7355 13.6097 79.859 13.4674 78.5842 13.3097C75.726 12.9539 72.8125 12.4404 72.8125 9.3462C72.8125 6.63466 75.1143 4.81543 78.4204 4.81543C82.864 4.81543 84.9314 7.71158 84.6437 10.7212H82.8239C82.8239 10.0866 82.3209 9.40774 81.6978 9.08081C80.9756 8.70389 80.0553 8.46543 78.5842 8.46543C76.6483 8.46543 75.3582 8.88274 75.3582 9.81928C75.3582 10.55 75.9451 10.925 78.9558 11.2712C80.888 11.4885 82.2237 11.6674 83.1383 12.0789C84.7123 12.725 85.3125 14.077 85.3125 15.4116Z" fill="white"/>
</g>
<defs>
<clipPath id="clip0_1_247">
<rect width="125" height="20" fill="white"/>
</clipPath>
</defs>
</svg>
