<svg width="24" height="25" viewBox="0 0 24 25" fill="none" xmlns="http://www.w3.org/2000/svg">
<g clip-path="url(#clip0_1_238)">
<path fill-rule="evenodd" clip-rule="evenodd" d="M0 12.5264C0 5.89895 5.37258 0.526367 12 0.526367C18.6274 0.526367 24 5.89895 24 12.5264C24 19.1538 18.6274 24.5264 12 24.5264C5.37258 24.5264 0 19.1538 0 12.5264ZM13.2508 19.5821V13.0535H15.053L15.2918 10.8037H13.2508L13.2538 9.67762C13.2538 9.09084 13.3096 8.77643 14.1524 8.77643H15.279V6.52637H13.4766C11.3116 6.52637 10.5495 7.61776 10.5495 9.45315V10.8039H9.2V13.0537H10.5495V19.5821H13.2508Z" fill="white"/>
</g>
<defs>
<clipPath id="clip0_1_238">
<rect width="24" height="25" fill="white"/>
</clipPath>
</defs>
</svg>
