<svg width="28" height="28" viewBox="0 0 28 28" fill="none" xmlns="http://www.w3.org/2000/svg">
<g clip-path="url(#clip0_1_73)">
<path d="M14 0C6.26801 0 0 6.26801 0 14C0 21.732 6.26801 28 14 28C21.732 28 28 21.732 28 14C28 6.26801 21.732 0 14 0Z" fill="#004A43"/>
<path d="M14 0C11.4928 -2.1919e-07 9.03152 0.673318 6.87342 1.94961C4.71533 3.2259 2.93958 5.05833 1.73171 7.25545C0.523834 9.45256 -0.0718446 11.9337 0.00690959 14.4397C0.0856638 16.9458 0.835959 19.3846 2.17941 21.5016C3.52286 23.6185 5.41016 25.3358 7.64413 26.4741C9.8781 27.6124 12.3768 28.1298 14.8791 27.9724C17.3814 27.8149 19.7955 26.9884 21.8692 25.5791C23.9429 24.1698 25.6 22.2295 26.6676 19.9609L14 14V0Z" fill="#44B8D9"/>
</g>
<defs>
<clipPath id="clip0_1_73">
<rect width="28" height="28" fill="white"/>
</clipPath>
</defs>
</svg>
