<svg width="48" height="48" viewBox="0 0 48 48" fill="none" xmlns="http://www.w3.org/2000/svg">
<path d="M43.1772 40H10.8113L4 9.04685C4.33719 8.61713 4.48554 8.42971 4.82273 8H37.1887L44 38.9532C43.6628 39.3829 43.5144 39.5703 43.1772 40Z" fill="#FFAD3D"/>
<path d="M31.942 14.513L31.9509 14.4775C31.9376 14.4864 31.9332 14.4997 31.942 14.513Z" fill="#004A43"/>
<path d="M29.2264 14.3359C29.2264 14.3407 29.2264 14.3407 29.2312 14.3455C29.2312 14.3359 29.2312 14.3359 29.2264 14.3359Z" fill="#004A43"/>
<path d="M32.1173 13.2068V13.2117L32.1271 13.2068H32.1173Z" fill="#004A43"/>
<path d="M32.7783 13.9564C32.6164 13.7507 32.6659 13.5907 32.4321 13.449C32.3467 13.353 32.2253 13.2798 32.1219 13.2067C32.0005 13.2524 32.0005 13.0924 31.8836 13.1153L31.906 13.0467C31.8656 13.0558 31.8296 13.0513 31.8386 13.0101L31.8521 12.9964C31.7937 13.0055 31.7847 12.9599 31.7532 12.9644L31.7667 12.9507L31.7307 12.9278L31.7532 12.9141C31.6723 12.9095 31.6228 12.8684 31.5958 12.809L31.5464 12.8684C31.5149 12.7176 31.3755 12.809 31.3621 12.6535L31.3755 12.6398C31.1238 12.6901 31.3261 12.3976 31.0563 12.4113C31.0923 12.4113 31.0743 12.3701 31.0878 12.3564C30.9889 12.2924 30.8945 12.2193 30.818 12.361C30.7686 12.3107 30.8001 12.2741 30.818 12.2101C30.8091 12.2284 30.7956 12.2421 30.7821 12.2467C30.7506 12.2604 30.7146 12.2467 30.6832 12.2239L30.7146 12.2147C30.6697 12.1873 30.6247 12.1644 30.5843 12.1461L30.5708 12.297C30.5213 12.2193 30.5977 12.1233 30.5303 12.1141L30.5078 12.2239C30.4359 12.1507 30.3999 11.9587 30.283 11.8627C30.0313 11.8078 29.7795 11.9678 29.6491 12.1735C29.5727 12.2741 29.5097 12.3976 29.4423 12.4981C29.3704 12.5987 29.2804 12.6993 29.213 12.7221L29.1411 12.6855C29.0422 12.6215 29.2355 12.8501 29.1411 12.7998L29.1636 12.8593C29.1411 12.8547 29.1096 12.8593 29.1006 12.8318C29.0781 12.8547 29.0961 12.8684 29.1096 12.905L29.0332 12.8913C28.9163 12.9644 28.9702 13.1335 28.8713 13.2295C28.66 13.2798 28.6016 13.6044 28.5701 13.7964C28.5746 14.0981 28.0351 14.0707 28.0621 14.3907C28.0441 14.3861 28.0621 14.4273 28.0756 14.4364L27.9317 14.6193C27.9317 14.6193 27.2753 15.5153 28.5341 15.3644L28.5521 15.3827C28.6735 15.3141 28.7274 15.2547 28.6735 15.113C28.8084 15.1907 28.7454 15.0353 28.8039 15.0398L28.8129 15.049C28.7589 14.9164 28.9837 14.9759 28.9343 14.8524C28.9433 14.8616 28.9792 14.889 28.9702 14.9027C28.9837 14.8478 28.9972 14.7656 29.0736 14.8158C29.1276 14.697 29.2625 14.569 29.186 14.4181L29.204 14.4364C29.1501 14.3404 29.2265 14.377 29.213 14.3038C29.2265 14.3084 29.231 14.3084 29.2355 14.313C29.186 14.217 29.3074 14.1804 29.2939 14.121L29.3434 14.153L29.3884 14.0615L29.3569 14.0844C29.2265 13.9793 29.4873 14.0798 29.4378 13.9564C29.4918 13.9107 29.231 13.641 29.3389 13.6318C29.2939 13.5587 29.4243 13.7278 29.4063 13.6547C29.4783 13.705 29.4378 13.705 29.5008 13.7324C29.4963 13.6684 29.6176 13.7141 29.6041 13.6318L29.6626 13.6684C29.6086 13.5313 29.82 13.5907 29.7525 13.481C29.7525 13.3804 29.9458 13.5495 29.8874 13.4033L29.9818 13.4261C30.0133 13.4033 29.9054 13.3393 29.9638 13.3301C30.0088 13.3667 30.0313 13.3118 30.0627 13.3621C30.1212 13.353 30.1347 13.2798 30.1257 13.2478C30.1122 13.225 30.1122 13.1976 30.1706 13.2433C30.0987 13.1518 30.1527 13.1884 30.1032 13.1107C30.1347 13.1518 30.1302 13.0878 30.1796 13.2021C30.1841 13.2113 30.1796 13.2113 30.1706 13.193L30.2066 13.257C30.2785 13.3758 30.1751 13.1747 30.1976 13.1793C30.1841 13.1564 30.1841 13.1701 30.1661 13.1153L30.1796 13.1107L30.2021 13.1793C30.2111 13.1884 30.2201 13.1976 30.2246 13.2113L30.2021 13.1244C30.2246 13.161 30.2516 13.3118 30.2381 13.1838C30.2336 13.1107 30.2111 13.065 30.2201 13.033C30.2516 13.0878 30.2695 13.1884 30.274 13.2158C30.283 13.1198 30.2875 13.1244 30.292 13.1061L30.2785 13.1884C30.31 13.0878 30.2471 13.3667 30.2696 13.2844L30.2561 13.3347L30.301 13.1793C30.3595 13.0513 30.2516 13.3256 30.337 13.1518C30.328 13.1564 30.3864 13.0193 30.3954 13.0376V13.0421L30.373 13.0787L30.364 13.1016C30.3729 13.0924 30.3864 13.0741 30.3864 13.0878C30.364 13.1153 30.3415 13.1747 30.3505 13.1701L30.3055 13.2433C30.328 13.2067 30.3505 13.1747 30.3775 13.1473C30.3505 13.2204 30.4044 13.1518 30.3685 13.2387C30.3685 13.2387 30.4134 13.3438 30.4988 13.2844C30.4404 13.3164 30.4674 13.3713 30.4044 13.417C30.4719 13.385 30.5708 13.3941 30.5393 13.4718H30.5303C30.5618 13.609 30.7506 13.5359 30.7641 13.6776C30.8136 13.6181 30.827 13.6867 30.8855 13.6044C31.0339 13.609 30.8945 13.8924 31.1328 13.6913C31.1822 13.7141 31.1283 13.7873 31.1328 13.8147L31.1148 13.8193C31.2002 13.865 31.2227 13.8833 31.2676 13.9336C31.3126 13.9336 31.416 13.833 31.4385 13.9016C31.3845 13.929 31.4115 13.9381 31.4295 13.9564C31.4115 13.9518 31.3935 13.9656 31.389 14.0158C31.4025 14.0067 31.416 14.0021 31.425 14.0021C31.4205 14.0067 31.4205 14.0113 31.416 14.0113C31.4565 14.025 31.4654 14.0067 31.4565 13.9884C31.461 13.9838 31.47 13.9747 31.4745 13.9564C31.452 14.0387 31.5599 14.0296 31.4969 14.1073C31.5958 14.1713 31.7262 14.153 31.8251 14.1941C31.7981 14.2399 31.7532 14.2581 31.7172 14.249L31.7802 14.281C31.7307 14.3359 31.7217 14.2856 31.6993 14.281C31.6768 14.4227 31.9016 14.313 31.8971 14.4593L31.951 14.4318L31.9465 14.441C31.969 14.4181 32.0095 14.4044 32.0274 14.4044C31.996 14.4593 31.9285 14.5095 31.9645 14.5415C31.951 14.6147 32.0634 14.5918 32.1219 14.601C32.1084 14.5735 32.1398 14.5553 32.1623 14.5461C32.1803 14.5598 32.1488 14.6193 32.1803 14.6101L32.1219 14.6741C32.1713 14.6101 32.2253 14.6513 32.2567 14.633C32.2253 14.6878 32.1938 14.6467 32.1578 14.6787C32.2342 14.7381 32.1938 14.7107 32.2702 14.7701C32.3511 14.7564 32.3197 14.7061 32.3871 14.665C32.4321 14.6833 32.504 14.6695 32.504 14.7427L32.5445 14.6741C32.6479 14.6878 32.6748 14.729 32.6659 14.825C33.5426 14.8021 33.3358 14.2947 33.3358 14.2947C33.2728 14.0433 33.03 14.1164 32.7783 13.9564Z" fill="#004A43"/>
<path d="M30.9395 28.1782L30.9483 28.227C30.9572 28.2181 30.9572 28.2004 30.9395 28.1782Z" fill="#004A43"/>
<path d="M31.3364 30.103C31.3364 30.0981 31.3364 30.103 31.3364 30.103C31.3315 30.103 31.3266 30.0981 31.3217 30.0981L31.3364 30.103Z" fill="#004A43"/>
<path d="M34.2843 32.9873C35.0621 33.833 35.4353 32.713 35.0621 32.3107C34.6934 31.9084 34.8328 32.0776 34.7879 32.0547L34.8328 32.0044C34.644 31.9359 34.8913 31.849 34.7159 31.7668L34.7609 31.7439L34.6305 31.8079C34.4237 31.785 34.671 31.6433 34.4192 31.6387C34.4776 31.6845 34.3383 31.7713 34.2978 31.6844L34.3607 31.6525C34.3158 31.625 34.2888 31.6342 34.2753 31.5976C34.3203 31.593 34.3517 31.5427 34.2978 31.497L34.3877 31.4742L34.2124 31.4604C34.1899 31.3324 34.0146 31.273 34.0505 31.177C34.0505 31.177 33.9291 30.9805 33.8212 31.0125C33.8977 31.0033 33.8302 30.8936 33.9022 30.8662C33.8122 30.8753 33.6549 30.7884 33.6594 30.6833L33.6729 30.6879C33.5515 30.4456 33.2997 30.441 33.2098 30.2033C33.1603 30.2673 33.1109 30.1485 33.0614 30.2399C32.8321 30.1347 32.9086 29.7736 32.6343 29.9336C32.5489 29.865 32.5984 29.7873 32.5714 29.7325L32.5984 29.7416C32.441 29.609 32.4005 29.5679 32.3016 29.4536C32.2297 29.4216 32.1218 29.513 32.0543 29.3896C32.1218 29.3805 32.0813 29.3484 32.0453 29.3119C32.0723 29.3302 32.0948 29.321 32.0768 29.2433C32.0588 29.2479 32.0409 29.2479 32.0229 29.2433C32.0274 29.2387 32.0274 29.2342 32.0319 29.2342C31.9599 29.1884 31.9599 29.2113 31.9779 29.2433C31.9689 29.2479 31.9644 29.257 31.9599 29.2799C31.9509 29.161 31.7936 29.1062 31.852 29.0284C31.6632 28.8593 31.4699 28.7999 31.299 28.6719C31.317 28.617 31.3845 28.6216 31.4384 28.6536L31.326 28.5576C31.38 28.5073 31.4114 28.5896 31.4564 28.6125C31.4204 28.3976 31.1237 28.425 31.0607 28.1964L30.9933 28.2056V28.1919C30.9708 28.2147 30.9124 28.2102 30.8854 28.1919C30.9079 28.1233 30.9888 28.0867 30.9169 28.0136C30.9034 27.9085 30.737 27.8627 30.6426 27.8125C30.6741 27.8627 30.6381 27.8719 30.6067 27.8719C30.5707 27.8353 30.5932 27.7667 30.5482 27.7576L30.6067 27.6936C30.5617 27.7667 30.4538 27.657 30.4178 27.6662C30.4403 27.5976 30.5123 27.6844 30.5527 27.6616C30.4089 27.5153 30.4808 27.5885 30.3324 27.4422C30.211 27.4056 30.2875 27.5153 30.202 27.529C30.1256 27.4696 30.0177 27.4422 29.9772 27.3233L29.9503 27.4056C29.7839 27.3142 29.7165 27.2273 29.685 27.081C28.3272 26.5188 28.8982 27.4742 28.8982 27.4742C29.1455 27.9907 29.4872 28.0365 29.9638 28.4662C30.3189 28.9096 30.3144 29.1245 30.7506 29.5085C30.9304 29.7233 31.1552 29.9153 31.353 30.1027C31.5193 30.1165 31.5958 30.3633 31.7666 30.409L31.7621 30.5005C31.8206 30.5142 31.879 30.5462 31.888 30.6102L31.8745 30.6193C31.9644 30.6422 32.0004 30.729 32.0453 30.7382L32.0319 30.7473L32.1038 30.8113L32.0723 30.8205C32.2027 30.8845 32.3016 30.985 32.3691 31.0947L32.4185 31.0307C32.5354 31.2913 32.7197 31.2456 32.8052 31.497L32.7917 31.5062C33.1424 31.5793 33.0165 31.9588 33.3671 32.0502C33.3222 32.041 33.3492 32.0913 33.3357 32.1005C33.4481 32.1919 33.5605 32.297 33.6729 32.1873C33.7403 32.265 33.6954 32.2833 33.6639 32.3382C33.7133 32.2879 33.7943 32.3382 33.8527 32.393L33.8078 32.3839L33.9831 32.5393L34.0415 32.4159C34.1 32.5347 33.9516 32.5485 34.055 32.617L34.1269 32.5393C34.2169 32.6673 34.055 32.7405 34.2843 32.9873Z" fill="#004A43"/>
<path d="M30.3416 31.0807L30.3903 31.0718C30.3859 31.0674 30.3682 31.063 30.3416 31.0807Z" fill="#004A43"/>
<path d="M32.2346 30.6787C32.2346 30.6836 32.2297 30.6885 32.2297 30.6933L32.2346 30.6787Z" fill="#004A43"/>
<path d="M35.0711 27.6845C35.9029 26.8936 34.8014 26.5142 34.4057 26.8936C34.0101 27.2685 34.1764 27.1267 34.154 27.1725L34.1045 27.1268C34.0371 27.3188 33.9517 27.0673 33.8707 27.2456L33.8483 27.1999L33.9112 27.3325C33.8887 27.5428 33.7494 27.2913 33.7449 27.5473C33.7898 27.4879 33.8752 27.6296 33.7898 27.6708L33.7583 27.6067C33.7314 27.6525 33.7403 27.6799 33.7044 27.6936C33.6999 27.6479 33.6504 27.6159 33.6055 27.6708L33.583 27.5793L33.5695 27.7576C33.4436 27.7805 33.3852 27.9587 33.2908 27.9222C33.2908 27.9222 33.0974 28.0456 33.1289 28.1553C33.1199 28.0776 33.012 28.1462 32.985 28.073C32.994 28.1645 32.9086 28.3245 32.8052 28.3199L32.8097 28.3062C32.5714 28.4296 32.5669 28.6856 32.3331 28.777C32.3961 28.8273 32.2792 28.8776 32.3691 28.9279C32.2657 29.161 31.9105 29.0833 32.0679 29.3622C32.0005 29.449 31.924 29.3987 31.8701 29.4262L31.879 29.3987C31.7487 29.5587 31.7082 29.5999 31.5958 29.7005C31.5643 29.7736 31.6543 29.8833 31.5329 29.9519C31.5239 29.8787 31.4924 29.9245 31.4564 29.961C31.4744 29.9336 31.4654 29.9108 31.389 29.929C31.3935 29.9473 31.3935 29.9656 31.389 29.9793C31.3845 29.9747 31.38 29.9747 31.38 29.9702C31.335 30.0433 31.3575 30.0433 31.389 30.025C31.3935 30.0342 31.4025 30.0388 31.425 30.0433C31.3081 30.0525 31.2541 30.2125 31.1777 30.153C31.0113 30.345 30.9529 30.5416 30.827 30.7153C30.7731 30.697 30.7775 30.6285 30.809 30.5736L30.7146 30.6879C30.6652 30.633 30.7461 30.601 30.7686 30.5553C30.5573 30.5919 30.5842 30.8936 30.3594 30.9576L30.3684 31.0307H30.355C30.3774 31.0536 30.3729 31.113 30.355 31.1405C30.2875 31.1176 30.2515 31.0353 30.1796 31.1085C30.0762 31.1222 30.0312 31.2913 29.9818 31.3873C30.0312 31.3553 30.0402 31.3919 30.0402 31.4239C30.0043 31.4605 29.9368 31.4376 29.9278 31.4833L29.8649 31.4239C29.9368 31.4696 29.8289 31.5793 29.8379 31.6159C29.7705 31.593 29.8559 31.5199 29.8334 31.4788C29.6895 31.625 29.7615 31.5519 29.6176 31.7028C29.5817 31.8262 29.6896 31.7485 29.703 31.8353C29.6446 31.913 29.6176 32.0227 29.5007 32.0639L29.5816 32.0913C29.4917 32.2605 29.4063 32.329 29.2624 32.361C28.7094 33.7416 29.6491 33.161 29.6491 33.161C30.1571 32.9096 30.2021 32.5622 30.6247 32.0776C31.0608 31.7165 31.2721 31.721 31.6498 31.2776C31.8611 31.0948 32.0499 30.8662 32.2342 30.665C32.2477 30.4959 32.4905 30.4182 32.5355 30.2445L32.6254 30.249C32.6389 30.1896 32.6703 30.1302 32.7333 30.121L32.7423 30.1348C32.7648 30.0433 32.8502 30.0068 32.8591 29.961L32.8681 29.9747L32.9311 29.9016L32.9401 29.9336C33.003 29.801 33.1019 29.7005 33.2098 29.6319L33.1469 29.5816C33.4032 29.4628 33.3582 29.2753 33.6055 29.1885L33.6145 29.2022C33.6864 28.8456 34.0596 28.9736 34.1495 28.617C34.1405 28.6628 34.19 28.6353 34.2034 28.649C34.2934 28.5348 34.3968 28.4205 34.2889 28.3062C34.3653 28.233 34.3833 28.2833 34.4372 28.3153C34.3878 28.265 34.4372 28.1827 34.4912 28.1233L34.4822 28.169L34.635 27.9908L34.5137 27.9313C34.6306 27.8719 34.6485 28.0227 34.7115 27.9176L34.635 27.8445C34.7609 27.753 34.8284 27.9176 35.0711 27.6845Z" fill="#004A43"/>
<path d="M19.4749 14.3816L19.4838 14.4502C19.4973 14.4365 19.4973 14.4182 19.4749 14.3816Z" fill="#004A43"/>
<path d="M13.0551 15.6809C13.0551 15.676 13.0551 15.6711 13.0502 15.6663C13.0502 15.676 13.0551 15.6809 13.0551 15.6809Z" fill="#004A43"/>
<path d="M19.1924 16.5722L19.1826 16.5576L19.1924 16.5722Z" fill="#004A43"/>
<path d="M18.3508 14.6057C18.5621 14.8114 18.6341 14.9943 18.7105 15.1589C18.7824 15.328 18.8588 15.488 18.9892 15.7486C19.0791 16.0092 19.1691 16.2926 19.1915 16.5714C19.3174 16.704 19.1915 16.9372 19.259 17.1017L19.187 17.152C19.214 17.2114 19.2185 17.28 19.1691 17.3257L19.1511 17.3166C19.1781 17.408 19.1331 17.4903 19.1376 17.536L19.1196 17.5269L19.0926 17.6229L19.0747 17.5955C19.0836 17.7463 19.0117 17.8834 18.9353 17.9886L19.0117 18.016C18.7959 18.208 18.8678 18.3954 18.6206 18.5234L18.6071 18.5097C18.5801 18.7063 18.4497 18.7657 18.3373 18.8251C18.2114 18.8709 18.099 18.9212 18.0046 19.0903C18.0271 19.0492 17.9687 19.0629 17.9642 19.0446C17.8518 19.1452 17.7034 19.2137 17.7664 19.3646C17.6585 19.4149 17.6585 19.3555 17.627 19.3052C17.654 19.3692 17.5685 19.4286 17.4831 19.4652L17.5146 19.424C17.4382 19.4652 17.3527 19.488 17.2718 19.52L17.3527 19.6343C17.2044 19.6343 17.2808 19.4926 17.1594 19.552L17.1819 19.6571C16.9796 19.6709 16.8492 19.5246 16.6738 19.4515C16.3142 19.4377 15.932 19.4332 15.5634 19.328C15.1992 19.2274 14.853 19.0126 14.6687 18.7017L14.7002 18.624C14.7721 18.5372 14.4529 18.6057 14.5113 18.5097C14.4798 18.5006 14.4484 18.496 14.4169 18.4823C14.4214 18.4503 14.4079 18.4 14.4529 18.4137C14.4124 18.3497 14.3989 18.3634 14.336 18.3406L14.3495 18.2354C14.2461 17.9703 14.0123 17.8103 13.9403 17.4994C13.9628 17.1154 13.7875 16.4572 13.8324 16.0229C13.81 15.712 14.0078 15.4286 14.2236 15.2046C14.4439 14.976 14.6777 14.8023 14.8305 14.5417C14.853 14.5417 14.871 14.4869 14.862 14.4732C15.0014 14.368 15.1542 14.2766 15.3116 14.1943C15.3116 14.1943 15.3476 14.176 15.406 14.1486C15.4645 14.1166 15.5454 14.0754 15.6443 14.0389C15.8331 13.9474 16.0804 13.8743 16.2782 13.792C16.476 13.7234 16.6244 13.632 16.5884 13.4994C16.548 13.3806 16.3232 13.1566 15.6443 13.0743L15.6533 13.0469C15.2666 13.0834 15.0238 13.1886 14.853 13.4217C14.7406 13.3074 14.5743 13.568 14.4754 13.5817V13.568C14.3585 13.8011 14.0258 13.792 13.9358 14.0389C13.9358 14.0252 13.9044 13.9886 13.9403 13.952C13.8369 14.0892 13.7156 14.2812 13.6346 14.2354C13.3874 14.56 13.0906 15.0629 13.1446 15.36L13.1266 15.3326C13.1715 15.5063 13.0681 15.5109 13.0771 15.6846C13.0636 15.6891 13.0546 15.6983 13.0501 15.6937C13.0951 15.8674 12.9692 16.1417 12.9962 16.2743H12.9333C12.9288 16.3794 12.9288 16.4846 12.9288 16.5852L12.9467 16.4709C13.1086 16.5166 12.8254 16.704 12.9512 16.9326C12.9422 17.0377 13.0456 17.1383 13.1401 17.2251C13.23 17.3166 13.3154 17.3989 13.3064 17.504C13.4053 17.5817 13.1625 17.4492 13.257 17.5772C13.176 17.6046 13.1895 17.5223 13.1311 17.5772C13.203 17.7097 13.1131 17.8423 13.2345 18.0023L13.176 18.0343C13.3784 18.2126 13.2839 18.5052 13.4773 18.5874C13.6526 18.7703 13.4008 18.848 13.6661 18.9897L13.6571 19.1314C13.7245 19.232 13.7965 19.1223 13.8504 19.2457C13.801 19.2777 13.9268 19.4012 13.8369 19.3829C13.9853 19.6663 14.345 19.6983 14.5923 20.0274C14.7181 19.9771 14.853 20.1326 14.9519 20.0777C14.9384 20.128 15.2981 20.2514 15.0598 20.256C15.0373 20.256 15.0104 20.2377 15.0193 20.224L14.9699 20.2743C15.1273 20.4892 15.3745 20.3703 15.5769 20.448C15.5184 20.4115 15.433 20.3932 15.5049 20.3657L15.6982 20.4251L15.6443 20.4709C15.7387 20.5074 15.8376 20.544 15.9365 20.5714L15.905 20.4937C16.0444 20.5486 16.0849 20.6811 16.2647 20.5989C16.3456 20.5486 16.1343 20.4983 16.2917 20.4846C16.4805 20.5486 16.7773 20.6217 17.038 20.6172C17.0066 20.544 17.074 20.5349 17.1414 20.5075L17.1594 20.576C17.4112 20.4343 17.2853 20.7177 17.5371 20.5806L17.5236 20.6309L17.5595 20.4755C17.7529 20.2835 17.7304 20.5851 17.9237 20.3154C17.8293 20.3611 17.8293 20.192 17.9552 20.1737L17.9507 20.2469C18.0136 20.2103 18.0226 20.1783 18.0721 20.1691C18.0496 20.2194 18.0901 20.2697 18.18 20.2103L18.1485 20.3154L18.2789 20.1189C18.4542 20.1189 18.6116 19.904 18.715 19.9543C18.7195 19.9634 19.0117 19.7897 19.0117 19.6663C18.9982 19.7577 19.1556 19.6572 19.1646 19.7486C19.1871 19.6297 19.3354 19.424 19.4523 19.392L19.4433 19.4149C19.7715 19.1817 19.7715 18.8389 20.0233 18.592C19.9513 18.5692 20.0638 18.4274 19.9559 18.4183C19.9873 18.24 20.0952 18.1211 20.1627 18.0023C20.2346 17.888 20.2616 17.7829 20.1267 17.6823C20.1492 17.5314 20.2436 17.5223 20.275 17.4446L20.2841 17.4857C20.311 17.1794 20.3155 17.1017 20.338 16.8869C20.311 16.7771 20.1806 16.7589 20.2031 16.5714C20.2616 16.6309 20.2481 16.5532 20.2436 16.48C20.2526 16.5257 20.2751 16.5394 20.311 16.4434C20.293 16.4297 20.2795 16.4115 20.2705 16.3932C20.275 16.3932 20.2796 16.3886 20.2841 16.3886C20.2571 16.2697 20.2391 16.2926 20.2346 16.3474C20.2256 16.3474 20.2166 16.352 20.1986 16.3703C20.2661 16.2377 20.1447 16.032 20.2436 16C20.1492 15.6434 19.9738 15.4332 19.821 15.1863C19.8524 15.136 19.9244 15.1772 19.9783 15.2503L19.8704 15.0674C19.9379 15.0354 19.9603 15.1589 20.0008 15.2137C20.0008 14.9257 19.6726 14.7977 19.5917 14.5052L19.5108 14.4914L19.5063 14.4732C19.4838 14.4914 19.4118 14.464 19.3804 14.4366C19.4028 14.3634 19.4973 14.3452 19.3984 14.2354C19.3669 14.1029 19.1556 14.0069 19.0207 13.9383C19.0747 14.0023 19.0297 14.0114 18.9892 14.0023C18.9353 13.9566 18.9488 13.8789 18.8858 13.8652L18.9353 13.792C18.9083 13.8697 18.733 13.7463 18.6925 13.76C18.697 13.6823 18.8139 13.7829 18.8544 13.7554C18.6161 13.5863 18.742 13.664 18.4902 13.5177C18.3283 13.4949 18.4722 13.6046 18.3733 13.6274C18.2564 13.568 18.1125 13.5771 18.0001 13.4629L18.0136 13.5543C17.7708 13.5132 17.6495 13.4583 17.5101 13.344C17.038 13.376 16.8042 13.5223 16.6963 13.6229C16.5884 13.728 16.6019 13.8149 16.6514 13.8834C16.7053 13.952 16.7952 14.0069 16.8717 14.0434C16.9481 14.0846 17.011 14.112 17.011 14.112C17.2583 14.2354 17.4382 14.2857 17.6495 14.3314C17.8383 14.3543 18.0766 14.4091 18.3508 14.6057Z" fill="#004A43"/>
<path d="M15.8691 30.1898L15.9096 30.1121C15.8961 30.1121 15.8826 30.1304 15.8691 30.1898Z" fill="#004A43"/>
<path d="M17.9246 28.032C17.9197 28.0417 17.9197 28.0466 17.9148 28.0515L17.9246 28.032Z" fill="#004A43"/>
<path d="M16.7909 31.1543C16.8403 30.2172 17.0157 30.0114 17.2585 29.1566C17.3664 28.9737 17.4248 28.7543 17.5507 28.576C17.681 28.3977 17.7755 28.1966 17.9148 28.0366C17.9463 27.9269 18.0452 27.8217 18.1486 27.7212C18.2026 27.6709 18.252 27.616 18.3015 27.5612C18.3555 27.5109 18.4049 27.4606 18.4409 27.4057L18.5577 27.3966C18.6027 27.3189 18.6701 27.2366 18.7601 27.2137L18.7646 27.232C18.832 27.1086 18.9759 27.0537 19.0208 26.9989L19.0253 27.0172L19.1557 26.9257L19.1467 26.9623C19.3176 26.8023 19.5064 26.656 19.7132 26.5874L19.6592 26.5234C20.1043 26.3954 20.1763 26.1623 20.6034 26.0891L20.6079 26.1075C21.0035 25.6915 21.4306 25.9109 21.8622 25.5177C21.8083 25.568 21.9027 25.5452 21.9072 25.5634C22.1365 25.4492 22.3883 25.344 22.3388 25.1932C22.5142 25.1292 22.4962 25.184 22.5411 25.2343C22.5187 25.1703 22.658 25.088 22.7929 25.0286L22.739 25.0789L23.1211 24.9097L22.9997 24.8183C23.22 24.7726 23.1076 24.9463 23.2964 24.8412L23.256 24.7406C23.5527 24.6537 23.773 24.7406 24.0832 24.704C25.2746 24.2972 26.3986 23.4697 27.4866 22.9943L27.572 23.0354C27.653 23.1223 27.7609 22.7154 27.8553 22.7794L27.9407 22.6515C27.9857 22.6469 28.0621 22.6149 28.0216 22.6789C28.1295 22.6057 28.1205 22.5874 28.1745 22.5052L28.3274 22.4823C28.5521 22.3589 28.7275 22.1897 28.8938 22.0114C29.0602 21.8332 29.2355 21.6686 29.4333 21.4766C29.5727 21.3852 29.7301 21.2572 29.8874 21.1017C30.0403 20.9417 30.1797 20.7406 30.3235 20.544C30.4719 20.352 30.5798 20.1234 30.6832 19.9131C30.7866 19.7029 30.881 19.5154 30.9305 19.3326C30.9889 19.0766 31.1148 18.8434 31.2002 18.5874C31.2812 18.3269 31.407 18.0709 31.4835 17.7966C31.5464 17.5223 31.6139 17.2343 31.6453 16.9554C31.6408 16.672 31.6183 16.3932 31.5509 16.1326C31.5644 16.096 31.5239 16.0092 31.5104 16.0137L31.3171 15.072C31.3306 15.0674 31.2272 14.7977 31.0833 14.4503C31.0069 14.2766 30.9395 14.0754 30.8316 13.9017C30.7237 13.728 30.6113 13.5589 30.5034 13.4172C30.292 13.1383 30.1077 12.9737 30.0223 13.0926C29.9324 13.2114 29.9639 13.6183 30.1032 14.4183L30.0718 14.4091C30.1707 14.8663 30.2831 15.1223 30.4854 15.392C30.346 15.4834 30.5483 15.7577 30.5259 15.8766L30.5124 15.8674C30.7147 16.1189 30.4899 16.4343 30.6158 16.6857C30.6023 16.6766 30.5618 16.672 30.5528 16.6126C30.5888 16.8 30.6338 17.0606 30.5259 17.0697C30.5034 17.2892 30.5034 17.5589 30.4539 17.8011C30.4 18.0434 30.364 18.2674 30.3955 18.4366L30.3775 18.4092C30.409 18.6012 30.3055 18.6149 30.2786 18.8069C30.2651 18.8114 30.2516 18.8206 30.2471 18.816C30.2561 18.9212 30.2021 19.0446 30.1482 19.1634C30.0763 19.2732 29.9998 19.3783 29.9773 19.4514L29.9189 19.4286L29.7391 19.7486L29.82 19.6389C29.8739 19.7074 29.8155 19.7532 29.7391 19.8172C29.6492 19.8766 29.5412 19.9451 29.5008 20.0869C29.4154 20.1783 29.4019 20.3337 29.3749 20.4937C29.3479 20.6491 29.2985 20.7909 29.1726 20.8594C29.1366 21.0057 29.1636 20.6903 29.0692 20.8686C29.0017 20.8092 29.0916 20.768 29.0107 20.7497C28.9028 20.9097 28.7455 20.9097 28.6061 21.1017L28.5521 21.056C28.3993 21.344 28.0711 21.3531 27.9857 21.5726C27.7654 21.8011 27.6979 21.5314 27.5181 21.8286L27.3652 21.824C27.2483 21.8926 27.3517 21.9794 27.1944 22.0206C27.1719 21.9657 27.0055 22.0846 27.0505 21.9886C26.7133 22.0937 26.5245 22.4777 26.0479 22.5554C26.012 22.7017 25.7827 22.7566 25.7512 22.8617C25.7197 22.8251 25.3331 23.0583 25.5174 22.848C25.5354 22.8297 25.5714 22.816 25.5759 22.8343V22.7612C25.2881 22.7612 25.1847 23.0309 24.9374 23.1223C25.0184 23.1132 25.1038 23.0583 25.0633 23.1314C24.9914 23.1634 24.915 23.1909 24.8385 23.2183L24.861 23.1451L24.5193 23.2549L24.5913 23.3006C24.4159 23.3372 24.317 23.2503 24.1731 23.4194C24.1102 23.5063 24.362 23.4469 24.1956 23.5337C23.9573 23.5749 23.5977 23.6389 23.3099 23.7303C23.3639 23.7943 23.2874 23.8217 23.211 23.8674L23.1795 23.808C22.9098 24.0137 23.0177 23.7074 22.739 23.8949L22.7479 23.84L22.7165 24.0046C22.4917 24.2331 22.5231 23.9269 22.2804 24.2149C22.3973 24.16 22.3883 24.3337 22.2309 24.3612L22.2444 24.2834C22.168 24.3291 22.15 24.3657 22.0915 24.3703C22.1275 24.32 22.0825 24.2697 21.9656 24.3292L22.0196 24.2194L21.8353 24.4206C21.633 24.4206 21.3857 24.6126 21.2778 24.5577C21.2778 24.5577 20.8821 24.6674 20.8327 24.8C20.8866 24.7086 20.6663 24.7726 20.6978 24.6812C20.6259 24.7817 20.3606 24.9737 20.2123 24.9554L20.2302 24.9372C19.7627 25.0515 19.5423 25.3806 19.1197 25.4949C19.1737 25.5543 18.9534 25.6229 19.0523 25.6869C18.7241 26.0023 18.243 25.9429 18.2835 26.2949C18.1306 26.432 18.0497 26.3863 17.9553 26.4366L17.9868 26.3909C17.6946 26.6514 17.6046 26.7154 17.3978 26.9257C17.3169 27.0537 17.4023 27.1726 17.1955 27.328C17.2135 27.2274 17.146 27.3143 17.0786 27.3829C17.1146 27.3326 17.1101 27.3006 16.9977 27.3737C17.0022 27.4011 16.9932 27.4286 16.9842 27.456C16.9797 27.456 16.9752 27.456 16.9707 27.4515C16.8898 27.5977 16.9213 27.584 16.9707 27.5292C16.9752 27.5383 16.9887 27.5383 17.0157 27.5292C16.8583 27.6206 16.7459 27.9132 16.6515 27.8766C16.5031 28.0777 16.4537 28.2972 16.3952 28.4937C16.3458 28.6949 16.2693 28.8686 16.2424 29.0697C16.1839 29.0972 16.1614 28.9874 16.1839 28.8686C16.1525 28.96 16.139 29.0606 16.1165 29.152C16.049 29.1292 16.121 28.9783 16.1345 28.8869C16.0311 29.0331 16.0086 29.2206 15.9906 29.408C15.9726 29.6 15.9366 29.7874 15.8737 29.9794L15.9232 30.0709L15.9097 30.0937C15.9412 30.0983 15.9726 30.1897 15.9726 30.2492C15.9052 30.2995 15.8287 30.2263 15.8108 30.4274C15.7298 30.5829 15.7928 30.88 15.8467 31.0812C15.8512 30.9715 15.8872 31.008 15.9142 31.0537C15.9187 31.1497 15.8602 31.2091 15.8917 31.2823L15.8063 31.296C15.8827 31.2549 15.9052 31.5474 15.9412 31.5794C15.8827 31.6389 15.8827 31.4332 15.8332 31.4103C15.8602 31.8034 15.8377 31.6069 15.8782 31.9955C15.9771 32.192 15.9501 31.9497 16.0401 32.0366C16.085 32.2149 16.1749 32.3749 16.1569 32.5897L16.2199 32.512C16.3413 32.832 16.3413 33.0332 16.3368 33.2663C16.9662 34.3909 17.191 34.4229 17.2719 34.2172C17.3528 34.0069 17.2854 33.5451 17.2854 33.5451C17.2629 33.312 17.227 33.1109 17.1775 32.928C17.1461 32.7406 17.1056 32.5715 17.0561 32.3932C17.0022 32.2195 16.9482 32.032 16.8853 31.8309C16.8493 31.648 16.8178 31.4194 16.7909 31.1543Z" fill="#004A43"/>
</svg>
