<svg width="48" height="49" viewBox="0 0 48 49" fill="none" xmlns="http://www.w3.org/2000/svg">
<path d="M17.25 42.6493C15.025 42.6493 12.8499 41.9793 10.9998 40.724C9.14979 39.4688 7.70785 37.6846 6.85636 35.5971C6.00487 33.5097 5.78209 31.2127 6.21617 28.9967C6.65025 26.7807 7.72171 24.7452 9.29505 23.1475C10.8684 21.5498 12.873 20.4618 15.0552 20.021C17.2375 19.5802 19.4995 19.8065 21.5552 20.6711C23.6109 21.5358 25.3679 23 26.604 24.8786C27.8402 26.7573 28.5 28.966 28.5 31.2254V42.6493H17.25Z" fill="#44B8D9"/>
<path d="M30.75 28.9405C32.975 28.9405 35.1501 28.2705 37.0002 27.0153C38.8502 25.76 40.2922 23.9758 41.1436 21.8884C41.9951 19.8009 42.2179 17.504 41.7838 15.2879C41.3497 13.0719 40.2783 11.0364 38.7049 9.43876C37.1316 7.8411 35.127 6.75308 32.9448 6.31228C30.7625 5.87149 28.5005 6.09772 26.4448 6.96237C24.3891 7.82702 22.6321 9.29125 21.396 11.1699C20.1598 13.0485 19.5 15.2572 19.5 17.5166V28.9405H30.75Z" fill="#44B8D9"/>
<path d="M17.4536 32.5664C17.4277 33.6358 18.1532 33.1504 18.1647 32.6414C18.1762 32.1324 18.1647 32.3336 18.1647 32.2902H18.2136C18.1503 32.1206 18.3173 32.2271 18.2683 32.0574H18.3L18.205 32.0101C18.1158 31.8601 18.3029 31.9312 18.182 31.7615C18.182 31.8286 18.0783 31.7931 18.1014 31.7102L18.1445 31.7299C18.1445 31.6826 18.1186 31.6668 18.1273 31.6392C18.1359 31.6116 18.1935 31.6392 18.1877 31.5839L18.2424 31.6313L18.1618 31.505C18.2136 31.4064 18.1618 31.2485 18.2194 31.2091C18.2194 31.2091 18.2568 30.996 18.1877 30.9486C18.2309 30.9921 18.2511 30.8737 18.3 30.9092C18.2511 30.8539 18.2165 30.6922 18.2712 30.629C18.3317 30.3883 18.2108 30.2345 18.2712 30.0056C18.2165 30.0056 18.2482 29.8991 18.1791 29.9306C18.1158 29.7057 18.3288 29.536 18.1186 29.4453C18.1186 29.3427 18.1704 29.323 18.182 29.2717V29.2953C18.1716 29.1642 18.1716 29.0319 18.182 28.9008C18.1647 28.8297 18.0639 28.8179 18.0927 28.6916C18.1301 28.7311 18.1244 28.6916 18.1244 28.6364C18.1244 28.664 18.1445 28.6758 18.1733 28.6127C18.1627 28.604 18.1538 28.5918 18.1474 28.5772C18.133 28.4983 18.1215 28.5101 18.1158 28.5456C18.1073 28.5422 18.0983 28.5422 18.0898 28.5456C18.1417 28.4628 18.0898 28.3168 18.1589 28.3089C18.1401 28.123 18.1142 27.9386 18.0812 27.7565C18.1158 27.7565 18.1445 27.7801 18.1561 27.8393V27.6973C18.2079 27.6973 18.1848 27.7801 18.1935 27.8196C18.277 27.6539 18.1186 27.4803 18.1935 27.2869L18.1532 27.2435C18.133 27.2435 18.1042 27.2001 18.0985 27.1725C18.1417 27.1449 18.1992 27.1725 18.1992 27.0778C18.2424 27.0028 18.182 26.8608 18.1618 26.7621C18.1618 26.8174 18.1301 26.7976 18.1129 26.7621C18.0956 26.7266 18.1589 26.6871 18.1417 26.6516H18.1992C18.1445 26.6516 18.1417 26.5254 18.1186 26.5056C18.1647 26.478 18.1561 26.5806 18.1877 26.5924C18.1877 26.3991 18.1877 26.4977 18.1877 26.3044C18.1474 26.2018 18.133 26.3044 18.0812 26.2728C18.0294 26.2413 18.0351 26.0913 18.0812 25.9887L18.0265 26.0203C18.0071 25.9564 17.9996 25.8869 18.0046 25.818C18.0096 25.7492 18.0271 25.6831 18.0553 25.6257C17.6609 24.3512 17.4795 25.3574 17.4795 25.3574C17.3529 25.8585 17.4968 26.1189 17.5256 26.7148C17.4853 27.2396 17.3817 27.3777 17.4076 27.9222C17.3975 28.1851 17.3975 28.4485 17.4076 28.7114C17.4853 28.8297 17.4076 29.0428 17.4652 29.1849L17.4162 29.2401C17.428 29.2633 17.4343 29.2908 17.4343 29.319C17.4343 29.3472 17.428 29.3748 17.4162 29.3979C17.4508 29.4729 17.4162 29.5558 17.445 29.5913H17.4306V29.682H17.4133C17.4418 29.8107 17.4418 29.948 17.4133 30.0766H17.468C17.4018 30.3252 17.5112 30.416 17.4364 30.6409H17.422C17.5573 30.925 17.3126 31.0907 17.4421 31.3827C17.4248 31.3472 17.4133 31.3827 17.4018 31.3827C17.4018 31.5168 17.4191 31.6589 17.5256 31.6628C17.5256 31.7615 17.4882 31.7418 17.4479 31.7536C17.4939 31.7536 17.5112 31.8404 17.5141 31.9154L17.4968 31.8799V32.1008L17.5861 32.0574C17.5573 32.1719 17.4795 32.0851 17.4968 32.1995H17.5688C17.5745 32.3139 17.4623 32.2508 17.4536 32.5664Z" fill="#004A43"/>
<path d="M17.1915 37.8863C17.1563 38.2104 18.11 38.0615 18.1241 37.9125C18.1381 37.7636 18.1241 37.8206 18.1241 37.8074H18.1839C18.1029 37.7592 18.3211 37.8074 18.2578 37.7373H18.3H18.1733C18.0572 37.6936 18.3035 37.7373 18.1452 37.6629C18.1452 37.6629 18.0079 37.6629 18.0361 37.6629H18.0959C18.0959 37.6629 18.0607 37.6629 18.0748 37.6366C18.0889 37.6103 18.1592 37.6366 18.1522 37.6366H18.2226L18.117 37.6016C18.1839 37.5709 18.117 37.5227 18.1944 37.514C18.1944 37.514 18.2437 37.4483 18.1522 37.4351C18.2085 37.4351 18.2331 37.4351 18.3 37.4351C18.2367 37.4351 18.1909 37.3694 18.2613 37.3519C18.3387 37.2775 18.1768 37.2293 18.2613 37.1636C18.1909 37.1636 18.2331 37.1329 18.1416 37.1636C18.0572 37.0979 18.3387 37.041 18.0607 37.0191C18.0607 36.9884 18.1311 36.984 18.1452 36.9665C18.1332 36.9285 18.1332 36.8863 18.1452 36.8483C18.1205 36.8483 17.9903 36.8483 18.0255 36.7869C18.0607 36.7256 18.0713 36.7869 18.0713 36.7869C18.0713 36.7869 18.0959 36.7869 18.1346 36.7869H18.0994C18.0968 36.7832 18.0935 36.7802 18.0899 36.7782C18.0862 36.7761 18.0823 36.7751 18.0783 36.7751C18.0743 36.7751 18.0704 36.7761 18.0667 36.7782C18.0631 36.7802 18.0598 36.7832 18.0572 36.7869H18.0255C18.0959 36.7869 18.0255 36.7212 18.117 36.7169C18.117 36.6468 18.0185 36.5942 17.9903 36.5373C18.0258 36.529 18.0625 36.5385 18.0924 36.5636V36.5198C18.1592 36.5198 18.1276 36.5198 18.1416 36.5548C18.2543 36.5066 18.0466 36.4541 18.1416 36.3971H18.0924C18.0693 36.4044 18.0451 36.4044 18.022 36.3971C18.0783 36.3971 18.1557 36.3971 18.1522 36.3709C18.212 36.3709 18.1522 36.3052 18.1065 36.2745C18.0967 36.281 18.0858 36.2844 18.0748 36.2844C18.0637 36.2844 18.0529 36.281 18.0431 36.2745C18.0431 36.2745 18.0994 36.2745 18.0783 36.2395H18.1557C18.0818 36.2395 18.0818 36.2001 18.0502 36.1957C18.1065 36.1957 18.0959 36.1957 18.1381 36.222V36.0336C18.0818 36.003 18.0642 36.0336 17.9974 36.0336C17.9305 36.0336 17.934 35.9811 17.9974 35.9504H17.927C17.8812 35.8978 17.8918 35.8716 17.9657 35.8365C17.4449 35.4555 17.2056 35.7533 17.2056 35.7533C17.0367 35.9066 17.2302 35.9811 17.2654 36.1606C17.2126 36.3183 17.0754 36.3577 17.1106 36.5198C17.0965 36.5976 17.0965 36.6784 17.1106 36.7563C17.2091 36.7957 17.1106 36.857 17.1809 36.9008H17.1211C17.1493 36.9008 17.1669 36.9315 17.1211 36.9446H17.1035C17.1458 36.9665 17.1035 36.9928 17.1387 37.0015V37.0278H17.1141C17.1598 37.0672 17.1563 37.1067 17.1317 37.1417H17.2056C17.1176 37.2162 17.2619 37.2424 17.1598 37.3081H17.1915C17.371 37.3957 17.0507 37.4439 17.2197 37.5315C17.1985 37.5315 17.1809 37.5315 17.1633 37.5315C17.1458 37.5315 17.188 37.6147 17.3252 37.6147C17.3252 37.641 17.2795 37.6147 17.2267 37.641C17.2865 37.641 17.3111 37.6673 17.3111 37.6892H17.29V37.7549H17.4062C17.3675 37.7899 17.2619 37.7549 17.2865 37.7943H17.385C17.3604 37.8118 17.2126 37.7855 17.1915 37.8863Z" fill="#004A43"/>
<path d="M30.1394 23.8722C30.1006 24.1997 31.2632 24.0517 31.2847 23.8722C31.3062 23.6928 31.2847 23.778 31.2847 23.7646H31.3579C31.2632 23.7107 31.5258 23.7646 31.4483 23.6928H31.5H31.345C31.2029 23.6479 31.5043 23.6703 31.3105 23.6165C31.3105 23.6165 31.1426 23.6165 31.1771 23.6165H31.2503C31.2503 23.6165 31.2072 23.6165 31.2244 23.5896C31.2417 23.5627 31.3278 23.5896 31.3192 23.5896H31.4053L31.2546 23.5492C31.3364 23.5223 31.2546 23.4729 31.345 23.4595C31.345 23.4595 31.4053 23.3967 31.2933 23.3832C31.3622 23.3832 31.3924 23.3832 31.4742 23.3832C31.3967 23.3832 31.3407 23.3159 31.4268 23.2979C31.5215 23.2262 31.3235 23.1768 31.4268 23.1095C31.3364 23.1095 31.388 23.0781 31.2761 23.1095C31.1771 23.0422 31.5172 22.9839 31.1771 22.9615C31.1771 22.93 31.2632 22.9211 31.2847 22.9076C31.2765 22.8886 31.2723 22.8679 31.2723 22.847C31.2723 22.8262 31.2765 22.8055 31.2847 22.7865C31.2546 22.7865 31.0909 22.7865 31.1383 22.7237C31.1857 22.6609 31.19 22.7237 31.19 22.7237C31.19 22.7237 31.2244 22.7237 31.2675 22.7237H31.2287C31.2259 22.7199 31.2223 22.7169 31.2182 22.7148C31.2141 22.7128 31.2096 22.7117 31.2051 22.7117C31.2005 22.7117 31.196 22.7128 31.1919 22.7148C31.1878 22.7169 31.1842 22.7199 31.1814 22.7237H31.1383C31.2244 22.6967 31.1383 22.6564 31.2546 22.6519C31.2546 22.5801 31.1297 22.5263 31.0953 22.4679C31.1353 22.4512 31.18 22.4512 31.2201 22.4679V22.4276C31.2976 22.4276 31.2632 22.4276 31.2761 22.4634C31.4139 22.4141 31.1598 22.3603 31.2761 22.3019H31.2158C31.1861 22.3092 31.1551 22.3092 31.1254 22.3019C31.1986 22.3019 31.289 22.3019 31.289 22.275C31.3579 22.2481 31.2632 22.2077 31.2287 22.1763C31.1943 22.1449 31.1771 22.1763 31.1512 22.1763C31.1254 22.1763 31.2244 22.1763 31.1943 22.1404H31.289C31.1986 22.1404 31.1986 22.1 31.1598 22.0955C31.2287 22.0955 31.2158 22.0955 31.2675 22.1225V22.0327C31.1986 22.0013 31.1771 22.0327 31.0953 22.0327C31.0953 22.0058 31.0177 21.9789 31.0953 21.9475H31.0091C30.9532 21.8937 30.9661 21.8622 31.0565 21.8264C30.4192 21.436 30.1264 21.7456 30.1264 21.7456C29.9241 21.8981 30.1566 21.9789 30.1996 22.1628C30.1351 22.3244 29.9671 22.3647 30.0145 22.5307C29.9952 22.6102 29.9952 22.6935 30.0145 22.773C30.1351 22.8089 30.0145 22.8762 30.1049 22.9211H30.0274C30.0619 22.9211 30.0877 22.957 30.0274 22.9704C30.0791 22.9929 30.0274 23.0198 30.0705 23.0288V23.0557H30.0403C30.092 23.0961 30.092 23.1364 30.0403 23.1678H30.1307C30.0231 23.2441 30.1996 23.271 30.0748 23.3383C30.2944 23.4236 29.9025 23.4774 30.1092 23.5671C30.0834 23.5671 30.0619 23.5671 30.0403 23.5671C30.0188 23.5671 30.0705 23.6524 30.2427 23.6569C30.2427 23.6838 30.1824 23.6569 30.1178 23.6838C30.191 23.6838 30.2212 23.7107 30.2212 23.7331H30.1953V23.8004H30.3374C30.2944 23.8363 30.1652 23.8004 30.1953 23.8453H30.3116C30.3331 23.796 30.1523 23.778 30.1394 23.8722Z" fill="#004A43"/>
<path d="M27.6998 28.0225C27.9065 28.8244 28.1211 29.0288 28.2928 28.9086C28.3939 28.7691 28.4606 28.6065 28.4871 28.4347C28.5136 28.2629 28.4991 28.0871 28.4449 27.9223C28.1991 27.1004 28.2889 27.4292 28.2577 27.361L28.3006 27.3369C28.1523 27.0844 28.3786 27.1966 28.2225 26.936H28.2655L28.1445 26.8999C27.9612 26.6995 28.1874 26.7315 27.9612 26.5191C28.0119 26.6193 27.8831 26.6113 27.8519 26.4749H27.9104C27.8714 26.4068 27.8441 26.3908 27.8363 26.3386C27.8753 26.3707 27.9104 26.3386 27.8363 26.2344L27.9222 26.2785L27.7544 26.1221C27.731 25.9497 27.5632 25.7212 27.5905 25.649C27.5699 25.5892 27.5438 25.5315 27.5125 25.4766C27.4657 25.3924 27.4033 25.3002 27.3526 25.2842C27.4267 25.3243 27.3526 25.1439 27.415 25.1639C27.2828 25.0672 27.1887 24.9249 27.1497 24.763C26.9742 24.3941 26.7167 24.2258 26.5567 23.897C26.5216 23.9451 26.428 23.7727 26.4007 23.8569C26.1237 23.6123 26.0964 23.2234 25.835 23.2796C25.7141 23.1633 25.7414 23.0951 25.6907 23.023L25.7258 23.047L25.2966 22.6381C25.1991 22.5739 25.1133 22.6381 24.9806 22.4737C25.0587 22.4737 24.9806 22.4376 24.9338 22.3815C24.9767 22.4136 24.9962 22.4136 24.9338 22.3173C24.9132 22.321 24.8921 22.321 24.8714 22.3173C24.7622 22.2412 24.77 22.2692 24.8129 22.3173C24.8558 22.3655 24.8129 22.3173 24.8129 22.3494C24.7427 22.2211 24.5242 22.1129 24.5554 22.0447C24.2978 21.8418 24.0237 21.6621 23.7361 21.5075C23.7361 21.4554 23.8064 21.4714 23.8922 21.5075L23.6971 21.3832C23.7244 21.3391 23.822 21.4353 23.8844 21.4674C23.7883 21.358 23.6678 21.274 23.5333 21.2228C23.3895 21.1708 23.257 21.0905 23.1432 20.9863H23.0651C23.0651 21.0063 22.9793 20.9863 22.9364 20.9863C22.8935 20.9863 22.9871 20.8941 22.8506 20.8139C22.7017 20.7171 22.5361 20.6504 22.3629 20.6174C22.4409 20.6655 22.4019 20.6776 22.3629 20.6735C22.3239 20.6695 22.2693 20.5773 22.2069 20.5693V20.5052C22.2069 20.5733 21.9962 20.4691 21.9572 20.5052C21.9338 20.441 22.0859 20.5052 22.1171 20.5052C21.8245 20.3809 21.9689 20.445 21.6724 20.3247C21.5007 20.3047 21.6724 20.3929 21.5866 20.4129C21.4347 20.3834 21.2876 20.3321 21.1496 20.2606L21.1808 20.3288C20.9694 20.3079 20.7661 20.235 20.5879 20.1163C19.5345 20.0641 19.4175 20.2205 19.5384 20.3408C19.6875 20.4554 19.8534 20.5447 20.03 20.6054C20.74 20.9261 21.1574 20.8981 22.0157 21.2549C22.1913 21.3551 22.3356 21.4393 22.4604 21.5195L22.792 21.7641C22.8935 21.8443 23.0027 21.9164 23.1276 22.0006C23.2524 22.0848 23.385 22.189 23.5645 22.3013C23.7439 22.4136 23.8844 22.5459 24.0482 22.6742C24.2121 22.8025 24.3759 22.9187 24.5203 23.055C24.7036 23.1232 24.9104 23.4039 25.0899 23.5201L25.1133 23.6204C25.1878 23.6543 25.2485 23.7138 25.2849 23.7887C25.3864 23.8489 25.4566 23.9611 25.5073 23.9892C25.5385 24.0213 25.5658 24.0574 25.597 24.0934H25.5658C25.7159 24.2233 25.8473 24.3745 25.9559 24.5425L25.991 24.4944C26.1705 24.8432 26.3305 24.8953 26.467 25.2361C26.6117 25.3644 26.7173 25.5328 26.7713 25.7212C26.8337 25.9072 26.9289 26.0798 27.0522 26.2304C27.0132 26.1863 27.0522 26.2665 27.0249 26.2705C27.1263 26.4509 27.2316 26.6714 27.3331 26.6073C27.3916 26.7476 27.3331 26.7356 27.3331 26.7716C27.376 26.7716 27.4423 26.8679 27.4891 26.9801L27.454 26.936L27.5905 27.2527L27.653 27.1565C27.6959 27.3369 27.5671 27.2407 27.653 27.3971L27.7232 27.369C27.6998 27.5855 27.5593 27.5334 27.6998 28.0225Z" fill="#004A43"/>
<path d="M27.4143 13.0999C27.3584 13.2646 27.3228 13.4357 27.3081 13.6093C27.2973 13.7472 27.2973 13.8857 27.3081 14.0235C27.3329 14.2053 27.3971 14.3793 27.496 14.533C27.6431 14.7525 27.7656 14.7566 27.8596 14.6614C27.9696 14.5154 28.0438 14.3451 28.0761 14.1643C28.1128 14.0608 28.121 13.949 28.1619 13.8454C28.178 13.7925 28.1903 13.7386 28.1986 13.6839C28.2192 13.6332 28.2343 13.5805 28.2436 13.5265C28.2806 13.38 28.3398 13.2403 28.4192 13.1123C28.4437 13.0678 28.471 13.0249 28.5009 12.9839C28.4682 13.0088 28.5009 12.9591 28.5009 12.9839L28.554 13.017C28.6806 12.7313 28.7174 13.017 28.8808 12.7768V12.8265C28.8808 12.7768 28.8808 12.723 28.8808 12.6774C29.0483 12.4123 29.0646 12.6774 29.2607 12.3916C29.1545 12.462 29.1381 12.3005 29.3015 12.2467V12.3171C29.3791 12.2674 29.3955 12.2342 29.4567 12.2218C29.42 12.2715 29.4567 12.3129 29.5834 12.2508L29.5303 12.3543C29.5902 12.2867 29.6543 12.2231 29.7222 12.1638C29.9224 12.1638 30.2083 12.0106 30.3064 12.0727C30.3064 12.0727 30.7149 12.0437 30.817 11.9526C30.7353 12.0189 30.9722 12.0189 30.9109 12.0934C30.9942 12.0446 31.0866 12.0139 31.1822 12.0032C31.2779 11.9925 31.3747 12.002 31.4665 12.0313H31.4419C31.8831 12.1224 32.2344 12.0313 32.5816 12.2632C32.5816 12.1845 32.7736 12.3088 32.7613 12.2052C32.9417 12.261 33.1022 12.3689 33.2229 12.5159C33.3373 12.6236 33.4149 12.7064 33.5701 12.6567C33.709 12.7934 33.6763 12.8679 33.7172 12.9591L33.6804 12.9301C33.8376 13.1019 33.9524 13.3092 34.0154 13.5348C34.0725 13.6425 34.2155 13.6342 34.2155 13.8785C34.1502 13.8123 34.1869 13.9034 34.1828 13.9945C34.1828 13.9365 34.1542 13.9241 34.1216 14.0401C34.1393 14.0569 34.152 14.0784 34.1583 14.1022C34.1828 14.2472 34.191 14.2265 34.2033 14.1519C34.2033 14.1519 34.2033 14.1519 34.2359 14.1271C34.1706 14.2886 34.2073 14.5744 34.1093 14.5744C34.0846 14.9495 33.9558 15.31 33.7376 15.614C33.6763 15.614 33.7049 15.5187 33.7621 15.4317C33.7096 15.4995 33.6537 15.5645 33.5946 15.6264C33.5538 15.5767 33.6763 15.498 33.7131 15.4317C33.4557 15.5684 33.3046 15.9412 32.8961 16.0323L32.8471 16.111H32.7981C32.7981 16.1359 32.745 16.2063 32.696 16.2394C32.6224 16.2063 32.647 16.1152 32.4672 16.1897C32.3667 16.2022 32.2696 16.2346 32.1813 16.285L32.022 16.3678L31.8463 16.4548C31.9689 16.4258 31.9403 16.4548 31.8954 16.5045C31.8504 16.5542 31.7034 16.5045 31.6298 16.5666L31.589 16.4962C31.6584 16.5459 31.3317 16.6909 31.3071 16.7489C31.2173 16.7489 31.4542 16.6205 31.4624 16.5708C31.2418 16.6743 31.1887 16.7157 31.1315 16.7447C31.0195 16.815 30.9129 16.8939 30.8129 16.9808C30.6413 17.2169 30.8987 17.0015 30.8456 17.1423C30.691 17.3407 30.5542 17.5528 30.4371 17.776L30.5392 17.7222C30.4044 18.1364 30.4126 18.4097 30.3309 18.6665C30.5392 20.0831 30.7394 20.2363 30.866 20.0334C30.9631 19.8029 31.0304 19.5607 31.0661 19.3127C31.119 19.0561 31.1518 18.7958 31.1642 18.534C31.1701 18.3799 31.1934 18.2271 31.2336 18.0784C31.3038 17.8893 31.4175 17.72 31.5653 17.5846C31.7131 17.4491 31.8907 17.3515 32.0833 17.2997C32.3202 17.2293 32.5939 17.1713 32.8022 17.1051C33.0087 17.0459 33.2119 16.9754 33.4108 16.8938C33.6218 16.8043 33.822 16.6903 34.0072 16.5542C34.2578 16.3707 34.4714 16.1401 34.6362 15.8749C34.8452 15.5687 34.9847 15.2193 35.0447 14.8519C35.1071 14.5033 35.1167 14.1472 35.0733 13.7957C34.9998 13.6383 34.963 13.4188 34.8895 13.191C34.8288 12.9759 34.7229 12.7766 34.5791 12.607C34.5791 12.5532 34.5791 12.5034 34.5505 12.4496C34.4445 12.3573 34.3523 12.2499 34.2768 12.1307C34.1175 12.0106 33.9704 11.8532 33.8683 11.8035L33.6804 11.6668H33.7294C33.4312 11.5053 33.1371 11.3479 32.8716 11.2195V11.2982C32.6605 11.1764 32.4269 11.1003 32.1854 11.0745C31.9811 11.0455 31.7769 11.0289 31.5196 10.9668C31.3645 10.9968 31.2075 11.0148 31.0498 11.0207H30.6413C30.3376 10.989 30.0314 11.0465 29.759 11.1863C29.8407 11.1449 29.7141 11.1615 29.7182 11.1408C29.3996 11.2402 29.0687 11.3851 29.1218 11.5177C28.9053 11.6129 28.9257 11.555 28.8726 11.5177C28.9012 11.5674 28.7256 11.6916 28.5622 11.7869L28.6275 11.7248C28.472 11.8231 28.3244 11.9339 28.1864 12.0561L28.3416 12.081C28.1006 12.2384 28.1945 12.0189 27.9985 12.2301L28.0679 12.2964C27.9724 12.3896 27.8636 12.4678 27.7452 12.5283C27.6776 12.5777 27.6183 12.6379 27.5696 12.7064C27.496 12.8276 27.4435 12.9607 27.4143 13.0999Z" fill="#004A43"/>
</svg>
