<svg width="48" height="48" viewBox="0 0 48 48" fill="none" xmlns="http://www.w3.org/2000/svg">
<path d="M40.0901 16.2346C39.3187 15.7318 38.7173 15.0075 38.3647 14.1569C38.0122 13.3063 37.9249 12.3689 38.1145 11.4679C38.2686 10.7254 38.236 9.95634 38.0197 9.22958C37.8035 8.50282 37.4102 7.84108 36.8752 7.30371C36.3403 6.76634 35.6803 6.37012 34.9545 6.15058C34.2287 5.93104 33.4598 5.89504 32.7167 6.04581C31.8149 6.23365 30.8775 6.14566 30.0265 5.79329C29.1754 5.44092 28.4502 4.8405 27.9451 4.07019C27.5282 3.43424 26.9597 2.91203 26.2907 2.55063C25.6216 2.18923 24.8732 2 24.1128 2C23.3524 2 22.6039 2.18923 21.9349 2.55063C21.2659 2.91203 20.6973 3.43424 20.2805 4.07019C19.7767 4.84059 19.0524 5.44122 18.202 5.79366C17.3516 6.14609 16.4148 6.23397 15.5137 6.04581C14.7672 5.88553 13.9924 5.91435 13.2598 6.12965C12.5272 6.34494 11.8601 6.7399 11.3189 7.27861C10.7778 7.81733 10.3799 8.48273 10.1613 9.21434C9.94275 9.94595 9.91047 10.7206 10.0674 11.4679C10.2556 12.3689 10.1677 13.3058 9.81526 14.1561C9.46283 15.0065 8.8622 15.7308 8.09179 16.2346C7.45585 16.6515 6.93364 17.22 6.57224 17.889C6.21084 18.5581 6.02161 19.3065 6.02161 20.0669C6.02161 20.8273 6.21084 21.5758 6.57224 22.2448C6.93364 22.9138 7.45585 23.4824 8.09179 23.8992C8.86657 24.4059 9.46992 25.1352 9.82253 25.9911C10.1751 26.8471 10.2605 27.7897 10.0674 28.6951C9.91665 29.4382 9.95265 30.2071 10.1722 30.9329C10.3917 31.6587 10.7879 32.3187 11.3253 32.8536C11.8627 33.3886 12.5244 33.7819 13.2512 33.9981C13.9779 34.2144 14.747 34.247 15.4895 34.0929C16.4303 33.8965 17.4092 34.0036 18.2854 34.3987V45.5631L19.1446 46L24.0909 42.3351L29.0324 46L29.8965 45.5631V34.3987C30.7797 33.998 31.7681 33.8908 32.7167 34.0929C33.4574 34.2423 34.2236 34.2062 34.947 33.9878C35.6703 33.7694 36.3285 33.3755 36.8628 32.8412C37.3971 32.3069 37.791 31.6487 38.0094 30.9254C38.2278 30.202 38.2639 29.4358 38.1145 28.6951C37.9253 27.7933 38.0126 26.8554 38.3651 26.0041C38.7176 25.1527 39.3188 24.4276 40.0901 23.9235C40.7312 23.5077 41.2582 22.9381 41.623 22.2667C41.9878 21.5952 42.1789 20.8432 42.1789 20.079C42.1789 19.3149 41.9878 18.5629 41.623 17.8914C41.2582 17.22 40.7312 16.6504 40.0901 16.2346Z" fill="#FA70B6"/>
<path d="M27.8238 19.0452L27.751 19.0743C27.751 19.0743 27.785 19.0791 27.8238 19.0452Z" fill="#004A43"/>
<path d="M21.0959 19.3509C19.7708 17.9238 19.5766 19.3509 20.2076 20.0208C20.8387 20.6907 20.596 20.4237 20.6639 20.4722L20.6202 20.5256C20.9066 20.6858 20.5814 20.7198 20.8532 20.8945H20.795L20.96 20.846C21.2561 20.9528 20.96 21.0644 21.3047 21.1518C21.2124 21.0693 21.3823 20.9965 21.46 21.1518H21.3872C21.4551 21.2052 21.494 21.2052 21.5231 21.2537C21.46 21.2537 21.4309 21.3071 21.5231 21.3848H21.4017L21.6541 21.4625C21.7221 21.6469 21.9842 21.7877 21.96 21.909C21.96 21.909 22.1881 22.2246 22.324 22.2149C22.2269 22.2149 22.3531 22.3799 22.2512 22.3896C22.3378 22.4121 22.4181 22.4539 22.4862 22.5119C22.5543 22.57 22.6084 22.6426 22.6444 22.7245C22.6728 22.771 22.7053 22.8149 22.7415 22.8556C22.8007 22.924 22.8639 22.9888 22.9308 23.0498C23.0582 23.1687 23.2134 23.2538 23.3822 23.2973C23.7088 23.3695 24.05 23.332 24.353 23.1905C24.2996 23.142 24.6103 22.9478 24.4695 22.9138L24.5229 22.8459C24.5874 22.7491 24.6659 22.6624 24.7559 22.5886L24.9501 22.4479C25.0617 22.3556 25.1345 22.2683 25.0617 22.1081C25.1782 21.9624 25.2705 22.0013 25.3481 21.943V21.9867C25.4959 21.798 25.6582 21.6211 25.8335 21.4576C25.8966 21.3411 25.7947 21.2246 25.9792 21.0838C25.9792 21.1761 26.0277 21.0838 26.086 21.0402C26.0568 21.0838 26.086 21.113 26.1685 21.0402C26.161 21.0165 26.161 20.9911 26.1685 20.9674C26.2461 20.8509 26.217 20.8557 26.1685 20.8994C26.1199 20.9431 26.1685 20.8994 26.1248 20.8994C26.285 20.8411 26.4015 20.5936 26.4937 20.647C26.7704 20.3169 26.8966 20.0208 27.1102 19.7296C27.1781 19.7296 27.1587 19.8315 27.1102 19.9189L27.2655 19.7198C27.3238 19.7732 27.2024 19.8558 27.1587 19.9237C27.4597 19.7878 27.4888 19.3849 27.8189 19.2005V19.1325C27.7946 19.1325 27.8189 19.0257 27.8189 18.9772C27.8189 18.9286 27.9354 19.084 28.0519 18.9529C28.1926 18.8946 28.2946 18.6422 28.3917 18.4675C28.314 18.5306 28.3091 18.4675 28.3188 18.4335C28.3286 18.3995 28.4645 18.3753 28.4887 18.3073L28.5615 18.3607C28.4742 18.3316 28.6489 18.1325 28.6441 18.084C28.7266 18.084 28.5955 18.2248 28.6149 18.2733L28.9693 17.8801C29.0421 17.6957 28.8819 17.8462 28.8819 17.7248C28.9619 17.5699 29.0745 17.4341 29.212 17.3268H29.1101C29.2202 17.1204 29.3891 16.9515 29.5955 16.8414C30.6828 14.7007 29.2557 15.8705 29.2557 15.8705C28.4984 16.419 28.3528 16.9239 27.6587 17.7636C27.0886 18.2306 26.5533 18.7384 26.0568 19.283C25.7267 19.6228 25.4112 20.0159 25.086 20.3654C25.0278 20.6081 24.6734 20.812 24.5715 21.0741L24.4501 21.0984C24.4225 21.1924 24.36 21.2723 24.2754 21.3217C24.2268 21.4576 24.1006 21.545 24.0715 21.6129L23.9696 21.7392V21.6566C23.9299 21.7282 23.8845 21.7964 23.8336 21.8605L23.756 21.9527L23.7997 22.0353C23.7123 21.9576 23.6929 22.1372 23.6298 21.9139C23.1152 21.6906 23.1832 21.2101 22.6589 20.9674C22.7221 20.9965 22.659 20.914 22.6881 20.9042C22.5036 20.7441 22.3192 20.5596 22.2027 20.6713C22.0813 20.5402 22.1396 20.5305 22.1687 20.4674C22.1153 20.5208 21.9891 20.4285 21.892 20.3266L21.9551 20.3557L21.6639 20.079L21.6202 20.2344C21.5037 20.0499 21.7027 20.079 21.5425 19.9528L21.46 20.0354C21.2852 19.8121 21.4891 19.7732 21.0959 19.3509Z" fill="#004A43"/>
<path d="M32.673 13.0066L32.7555 13.1716C32.7555 13.1716 32.7506 13.1134 32.673 13.0066Z" fill="#004A43"/>
<path d="M13.5721 16.822V16.7783C13.5708 16.7929 13.5708 16.8075 13.5721 16.822Z" fill="#004A43"/>
<path d="M33.8332 19.3508V19.3411L33.8235 19.3022L33.8332 19.3508Z" fill="#004A43"/>
<path d="M30.5227 12.264L31.0469 12.7494L31.445 13.2348C31.6671 13.5202 31.8698 13.8202 32.0517 14.1328C32.2459 14.4095 32.3867 14.725 32.5905 15.0551C32.6828 15.225 32.7653 15.4143 32.8672 15.6182C32.9823 15.8379 33.0829 16.0649 33.1682 16.2978C33.3591 16.7928 33.5212 17.2985 33.6536 17.8123C33.6973 18.0744 33.741 18.3365 33.7895 18.5938C33.8381 18.851 33.8332 19.1132 33.8575 19.3656C33.8968 19.5033 33.9212 19.6449 33.9303 19.7879C33.9303 19.9432 33.9303 20.1131 33.9303 20.2733C33.9303 20.4335 33.9303 20.6228 33.9012 20.7927C33.8768 20.9533 33.8671 21.1157 33.872 21.2781L33.7701 21.4868C33.7823 21.6988 33.7423 21.9104 33.6536 22.1033C33.6222 22.3619 33.567 22.617 33.4886 22.8654L33.3721 23.2052V23.1372C33.2206 23.612 32.9998 24.0619 32.7168 24.4721H32.809C32.4983 24.875 32.3673 25.1954 32.1682 25.4429C31.9773 25.7624 31.7364 26.0492 31.4547 26.2924C31.1866 26.7172 30.8308 27.0796 30.411 27.3554C29.9788 27.6208 29.5667 27.9177 29.1781 28.2437C29.2946 28.1418 29.1004 28.2437 29.1004 28.2146C28.882 28.3748 28.615 28.5059 28.45 28.6224C28.2849 28.7389 28.149 28.8457 28.1782 28.9233C27.8092 29.0884 27.8529 28.9961 27.785 28.9622C27.8141 29.0253 27.4937 29.1757 27.1976 29.2874L27.3238 29.2146C27.0425 29.3204 26.7557 29.4112 26.4647 29.4864L26.6734 29.5738C26.188 29.6514 26.5132 29.4476 26.0715 29.5738L26.1006 29.6854C25.8116 29.7116 25.5207 29.7116 25.2317 29.6854C24.9696 29.6611 24.7075 29.5932 24.3871 29.5738C23.0425 29.6064 21.7029 29.3993 20.431 28.9622C19.1897 28.5419 18.0733 27.8176 17.1836 26.8555V26.7244C17.237 26.6079 16.5962 26.3506 16.6157 26.205C16.538 26.1468 16.4555 26.0934 16.3827 26.0303C16.3099 25.9672 16.271 25.7973 16.3827 25.8944C16.2949 25.7659 16.1867 25.6528 16.0623 25.5594L15.9264 25.2973C15.363 24.4643 14.9094 23.5621 14.5769 22.613C14.4066 21.7781 14.2882 20.9335 14.2226 20.084L14.1935 19.7248V19.3656C14.1935 19.1277 14.1935 18.8802 14.1935 18.6666C14.2517 18.2152 14.2517 17.7831 14.3391 17.4336C14.518 16.3733 14.9547 15.3731 15.6109 14.5212C16.2563 13.6709 16.9637 12.8694 17.7273 12.1232C17.793 12.0761 17.849 12.0168 17.8923 11.9485C18.1496 11.7689 18.3777 11.5602 18.6592 11.4048C18.9408 11.2495 19.1932 11.0699 19.4747 10.9194L19.8145 10.7544L20.1931 10.5699L20.6786 10.3855C21.4355 10.1105 22.2152 9.90263 23.0085 9.76415C23.7124 9.65736 24.2172 9.55057 24.0958 9.41465C23.873 9.28715 23.6239 9.21242 23.3677 9.19622C23.2561 9.19622 23.1299 9.15738 22.9891 9.14282H22.5037H21.9309C21.727 9.14282 21.5086 9.18651 21.2659 9.21078L21.3096 9.17195C20.8326 9.26041 20.3659 9.39703 19.9165 9.57969C19.5553 9.74269 19.212 9.94278 18.8922 10.1767C18.7078 10.0991 18.0816 10.633 17.8438 10.7495V10.7204C17.5895 10.9665 17.3096 11.1846 17.0088 11.3709C16.7226 11.568 16.466 11.805 16.2468 12.0747C16.248 12.0398 16.2569 12.0057 16.2729 11.9746C16.2888 11.9436 16.3114 11.9164 16.339 11.8951C16.0138 12.264 15.6012 12.7834 15.5041 12.7543C15.3342 12.9921 15.14 13.2397 14.9458 13.5164C14.7517 13.7931 14.6012 14.0843 14.4362 14.3658C14.1671 14.8358 13.9738 15.3453 13.8634 15.8755V15.7832C13.8245 16.2201 13.6595 16.2978 13.6061 16.7541C13.6061 16.7541 13.5721 16.8075 13.5673 16.8026C13.5339 17.0965 13.4837 17.3882 13.4168 17.6763C13.363 17.9491 13.3241 18.2246 13.3003 18.5015H13.2323C13.2032 18.8074 13.2032 19.1132 13.1935 19.4141L13.2226 19.0743C13.31 19.1374 13.2712 19.3073 13.2226 19.5597C13.162 19.8495 13.162 20.1486 13.2226 20.4383C13.2431 20.757 13.3343 21.0671 13.4896 21.3461C13.5583 21.4906 13.6167 21.6398 13.6644 21.7926C13.7233 21.9395 13.7657 22.0926 13.7906 22.2489C13.9459 22.5159 13.5916 22.0208 13.7906 22.4431C13.7032 22.4819 13.6789 22.2538 13.6352 22.3848C13.7055 22.5816 13.7559 22.7848 13.7857 22.9916C13.8367 23.2149 13.9132 23.4315 14.0139 23.6372L13.9508 23.6809C14.1178 23.9786 14.2623 24.2886 14.3828 24.608C14.4534 24.8734 14.581 25.1202 14.7565 25.3313C15.1934 25.9332 14.8391 25.8798 15.4216 26.4283L15.5283 26.7341C15.7419 27.0011 15.7808 26.8361 16.0138 27.1467C15.9555 27.1467 16.2953 27.5302 16.106 27.4088C16.3898 27.7456 16.7162 28.0442 17.0768 28.2971C17.47 28.5544 17.8535 28.8602 18.3049 29.2049C18.4768 29.2432 18.641 29.3105 18.7903 29.4039C18.9289 29.4814 19.0801 29.5339 19.2369 29.5592C19.2369 29.6272 20.2514 30.0446 19.6301 29.8844C19.5767 29.8844 19.4893 29.8262 19.5039 29.8116L19.4068 29.8408C19.6527 30.0249 19.9389 30.148 20.2417 30.2L21.1154 30.4135C20.9407 30.3407 20.698 30.2873 20.8727 30.2825L21.4406 30.4378H21.3047C21.5834 30.5337 21.869 30.6084 22.1591 30.6611L22.0523 30.5689C22.4649 30.666 22.6008 30.8358 23.0959 30.7727C23.3192 30.7242 22.7027 30.6514 23.1542 30.6514C23.4357 30.6902 23.79 30.7533 24.1687 30.7824C24.5473 30.8116 24.9453 30.7824 25.3142 30.7824C25.2366 30.7096 25.4307 30.6805 25.6297 30.6368L25.6637 30.7048C26.0423 30.5931 26.1152 30.6223 26.1977 30.6562C26.2802 30.6902 26.353 30.7193 26.7219 30.5834L26.6685 30.6465L26.8287 30.4524C27.4646 30.1369 27.2462 30.5155 27.9112 30.064C27.6296 30.1805 27.7267 29.9621 28.0811 29.865L28.018 29.9621C28.1408 29.8969 28.2672 29.8385 28.3966 29.7874C28.2995 29.8747 28.3966 29.9136 28.6442 29.7874L28.4985 29.9573L28.9839 29.5883C29.4305 29.4864 29.9548 29.001 30.1829 29.001C30.5243 28.8009 30.8335 28.5505 31.1003 28.2583C30.9935 28.4331 31.4158 28.1078 31.3479 28.2583C31.6017 27.9129 31.8986 27.6014 32.2313 27.3312L32.1974 27.3797C32.3804 27.2032 32.5538 27.0168 32.7168 26.8215C32.8575 26.6225 32.9837 26.4283 33.1099 26.239C33.3769 25.8701 33.5517 25.4623 33.8575 25.074C33.7701 25.074 34.0322 24.6323 33.8575 24.6954C33.9469 24.4713 34.0524 24.2539 34.173 24.0449C34.2652 23.8459 34.3526 23.6518 34.4351 23.4819C34.5088 23.3265 34.5657 23.1638 34.605 22.9965C34.6315 22.8672 34.6162 22.7329 34.5613 22.613C34.6274 22.3611 34.7201 22.117 34.838 21.8849C34.8428 21.9219 34.8428 21.9595 34.838 21.9965C34.9315 21.4257 34.9963 20.8506 35.0322 20.2733C34.9528 19.9701 34.9056 19.6593 34.8914 19.3462C34.9594 19.5258 34.9399 19.2976 34.9254 19.084C34.9254 19.22 34.9691 19.2588 34.9933 18.9821C34.9717 18.9326 34.9571 18.8803 34.9496 18.8268C34.906 18.4773 34.8914 18.5452 34.8914 18.7054C34.8914 18.7054 34.8914 18.7054 34.8574 18.7637C34.9108 18.3948 34.7069 17.7637 34.8137 17.7006C34.6088 16.829 34.282 15.9907 33.8429 15.2105C33.8429 15.0988 33.9837 15.259 34.1099 15.4823L33.8235 14.9289C33.8963 14.8998 34.0177 15.2347 34.1147 15.4143C33.9987 15.0448 33.8251 14.6958 33.6002 14.3804C33.3575 14.06 33.1439 13.7057 32.9158 13.3368L32.7556 13.2251V13.1814C32.7265 13.1814 32.576 13.0747 32.4935 12.9776C32.4109 12.8805 32.6342 12.8756 32.3381 12.5601C32.2082 12.3804 32.0566 12.2173 31.8867 12.0747C31.6974 11.9048 31.4644 11.7592 31.2896 11.6184C31.4595 11.7883 31.377 11.764 31.2896 11.7155C31.1295 11.5747 31.0858 11.434 30.9401 11.3514L30.9838 11.2689C30.9838 11.3854 30.4742 11.0068 30.3916 10.9874C30.3334 10.8612 30.6877 11.1427 30.7654 11.133C30.4274 10.8632 30.0669 10.6228 29.6878 10.4146C29.2606 10.235 29.7169 10.5311 29.4888 10.4874C29.1441 10.2787 28.7509 10.1962 28.3626 9.9389L28.4646 10.0797C28.1199 9.92919 27.8238 9.87579 27.5762 9.769C27.4549 9.72046 27.3384 9.67192 27.2268 9.61852C27.1151 9.56513 26.9938 9.53115 26.8773 9.48261C26.3343 9.40202 25.785 9.37276 25.2366 9.39524C24.9452 9.41843 24.6562 9.46551 24.3725 9.53601C24.0133 9.63309 24.0425 9.73017 24.2318 9.81269C24.4993 9.90601 24.7759 9.97108 25.057 10.0069L25.5958 10.1379C26.0812 10.235 26.4986 10.3952 26.8967 10.4923C27.2947 10.5893 27.6636 10.735 28.0374 10.8806C28.4395 11.0306 28.8305 11.209 29.2072 11.4145C29.4314 11.52 29.6458 11.6451 29.848 11.7883C30.0829 11.9321 30.3083 12.091 30.5227 12.264Z" fill="#004A43"/>
<path d="M21.261 36.5054C21.2694 36.5264 21.2808 36.546 21.295 36.5636C21.295 36.5636 21.295 36.5393 21.261 36.5054Z" fill="#004A43"/>
<path d="M29.2316 35.3307C29.9063 34.889 30.0762 34.6463 29.9015 34.4521C29.7346 34.3492 29.5405 34.2992 29.3447 34.3088C29.1489 34.3183 28.9605 34.3869 28.8045 34.5055C28.6181 34.6237 28.4441 34.7603 28.2851 34.9133C28.2851 34.9133 28.3239 34.9133 28.2851 34.9133L28.2365 34.8744C28.0569 35.156 28.0521 34.8744 27.8725 35.1365V35.088L27.9064 35.2336C27.8045 35.5297 27.6977 35.2725 27.6298 35.6268C27.6977 35.52 27.7705 35.6608 27.6589 35.7627V35.6996C27.6152 35.7724 27.6249 35.7967 27.5812 35.8307C27.5812 35.7773 27.5278 35.7627 27.4696 35.8307V35.7336L27.3773 35.9763C27.2414 36.0637 27.1152 36.2773 27.0133 36.2627C27.0133 36.2627 26.7512 36.452 26.7366 36.5588C26.7366 36.4763 26.5958 36.5588 26.6007 36.4811C26.5716 36.5734 26.4017 36.7724 26.2706 36.7481C25.926 36.8695 25.7512 37.1122 25.4114 37.1364C25.4454 37.1995 25.2658 37.2093 25.3338 37.2821C25.0134 37.4762 24.6833 37.219 24.6008 37.5199C24.4406 37.5199 24.4018 37.4617 24.3193 37.452H24.3581C24.1587 37.4832 23.9556 37.4832 23.7562 37.452C23.6445 37.452 23.6106 37.6121 23.4164 37.5393C23.4892 37.5005 23.4164 37.4956 23.3339 37.4811C23.3824 37.4811 23.397 37.4811 23.3339 37.4131C23.3146 37.4169 23.2948 37.4169 23.2756 37.4131C23.1543 37.4131 23.1688 37.4131 23.2271 37.4471C23.2853 37.4811 23.2271 37.4471 23.2271 37.4811C23.1106 37.4034 22.8727 37.3937 22.8824 37.3063C22.698 37.2626 22.5426 37.2432 22.397 37.1995C22.2449 37.1769 22.0964 37.1344 21.9553 37.0733C21.9553 37.0151 22.0281 37.0151 22.1106 37.0442L21.9165 36.9471C21.9504 36.8937 22.0427 36.9811 22.1058 37.0005C22.0136 36.9 21.8937 36.829 21.7611 36.7967C21.6221 36.7492 21.5004 36.6613 21.4116 36.5442H21.3291C21.3291 36.5442 21.2369 36.5442 21.1981 36.5442C21.1592 36.5442 21.2854 36.4472 21.1981 36.3452C21.1107 36.2433 20.9408 36.1316 20.8291 36.02C20.8728 36.0928 20.8291 36.0928 20.7952 36.0782C20.7612 36.0637 20.766 35.9472 20.7126 35.9132L20.766 35.8647C20.7272 35.9278 20.5913 35.7627 20.5379 35.7385C20.4845 35.7142 20.6593 35.821 20.7029 35.8064C20.4991 35.5443 20.601 35.6608 20.3729 35.3841C20.203 35.2725 20.3389 35.4618 20.2321 35.4326C20.0931 35.3253 19.9661 35.2033 19.8535 35.0686V35.156C19.6494 35.0291 19.4714 34.8643 19.3292 34.6705C19.0009 34.5153 18.6382 34.4468 18.2759 34.4715C18.106 34.5055 18.0914 34.5832 18.14 34.6705C18.259 34.8198 18.3978 34.9521 18.5526 35.0637C18.8438 35.3259 19.072 35.4909 19.3195 35.6802C19.452 35.7776 19.5784 35.883 19.6981 35.9957L19.8923 36.2045L20.1447 36.4957C20.2626 36.6664 20.3924 36.8286 20.533 36.9811C20.6367 37.1156 20.752 37.2407 20.8777 37.3549C21.1556 37.632 21.4855 37.8514 21.8485 38.0005C22.075 38.1174 22.3145 38.207 22.5621 38.2674C22.8039 38.3328 23.0506 38.3783 23.2999 38.4034C23.4449 38.3838 23.5918 38.3838 23.7368 38.4034C23.8967 38.4382 24.0622 38.4382 24.2222 38.4034L24.329 38.4568C24.4222 38.4163 24.5257 38.4061 24.6251 38.4276C24.761 38.3839 24.9212 38.3742 24.9843 38.3451L25.1493 38.3111V38.3403C25.3752 38.2573 25.6073 38.1923 25.8434 38.1461L25.8046 38.083C26.29 38.0005 26.3822 37.8112 26.7754 37.685C26.94 37.5153 27.1341 37.3771 27.3482 37.2772C27.5722 37.1784 27.7568 37.0076 27.8725 36.7918C27.8385 36.85 27.921 36.7918 27.9307 36.7918C28.0958 36.5928 28.2559 36.3598 28.1491 36.2773C28.2656 36.1365 28.2802 36.185 28.3385 36.1996C28.2948 36.1608 28.3385 36.0443 28.421 35.9472V36.0054C28.4841 35.9132 28.5569 35.821 28.6297 35.7336L28.4986 35.7093C28.6491 35.5977 28.6297 35.7676 28.7365 35.6268L28.6637 35.5589C28.8336 35.4618 28.8336 35.6171 29.2316 35.3307Z" fill="#004A43"/>
</svg>
