<svg width="28" height="28" viewBox="0 0 28 28" fill="none" xmlns="http://www.w3.org/2000/svg">
<g clip-path="url(#clip0_1_91)">
<path d="M14 0C6.26801 0 0 6.26801 0 14C0 21.732 6.26801 28 14 28C21.732 28 28 21.732 28 14C28 6.26801 21.732 0 14 0Z" fill="#004A43"/>
<path d="M14 0C11.4181 -3.0789e-08 8.88647 0.713992 6.68503 2.06304C4.48359 3.41208 2.69808 5.34363 1.52592 7.64413C0.353751 9.94463 -0.159411 12.5245 0.043163 15.0984C0.245738 17.6724 1.15616 20.1402 2.67377 22.229C4.19138 24.3178 6.25706 25.9463 8.64244 26.9343C11.0278 27.9224 13.64 28.2315 16.1901 27.8276C18.7402 27.4237 21.129 26.3225 23.0923 24.6457C25.0556 22.9689 26.5169 20.7818 27.3148 18.3262L14 14V0Z" fill="#FFAD3D"/>
</g>
<defs>
<clipPath id="clip0_1_91">
<rect width="28" height="28" fill="white"/>
</clipPath>
</defs>
</svg>
