<svg width="125" height="20" viewBox="0 0 125 20" fill="none" xmlns="http://www.w3.org/2000/svg">
<g clip-path="url(#clip0_1_17)">
<path d="M11.9417 11.6212C13.0145 11.6212 13.6128 10.9173 13.6128 9.38461V0.109615H16.3052V19.5885H13.5118C13.5118 19.5885 8.50036 12.5 6.57963 9.91154C5.75646 8.78077 5.30867 8.07692 4.38451 8.07692C3.31172 8.07692 2.7134 8.78077 2.7134 10.3135V19.5885H0.0209351V0.109615H2.81439C2.81439 0.109615 7.82582 7.19808 9.74655 9.78654C10.5697 10.9173 11.0175 11.6212 11.9417 11.6212Z" fill="black"/>
<path d="M32.2637 12.3404C32.2637 16.4673 29.8457 19.8904 25.5564 19.8904C21.2176 19.8904 18.7995 16.4673 18.7995 12.3404C18.7995 8.28846 21.2176 4.81538 25.5564 4.81538C29.8437 4.81538 32.2637 8.28846 32.2637 12.3404ZM29.5941 12.3404C29.5941 10.05 27.9973 8.71731 25.5545 8.71731C23.0602 8.71731 21.4653 10.0519 21.4653 12.3404C21.4653 14.7308 23.0621 15.9904 25.5545 15.9904C27.9992 15.9904 29.5941 14.7308 29.5941 12.3404Z" fill="black"/>
<path d="M45.6021 14.8654V8.89231H43.3079C40.564 8.89231 38.8948 9.16923 37.9459 10.8058C37.4962 11.5865 37.3971 12.5423 37.3971 13.9769V19.5885H34.7047V5.11731H37.3971V8.79231C38.146 6.275 39.7656 5.11731 42.6582 5.11731H45.6002V1.41731H48.2927V5.11731H53.7233V8.89231H48.2927V13.7635" fill="black"/>
<path d="M57.1513 19.5885V0.109615H59.8437V8.84231C60.4421 6.52692 62.1627 4.86538 64.8552 4.86538C67.9726 4.86538 70.0915 7.30577 70.0915 10.7788V19.5865H67.399V12.5904C67.399 11.6846 67.2999 10.9538 66.8007 10.25C66.1528 9.34423 65.1791 8.89038 63.7843 8.89038C62.2389 8.89038 60.7679 9.44423 60.0934 11.3058C59.8437 12.0096 59.8437 13.1423 59.8437 14.35V19.5846H57.1513V19.5885Z" fill="black"/>
<path d="M88.7024 14.8654V8.89231H86.4081V5.11731H88.7024V1.41731H91.3948V5.11731H96.8255V8.89231H91.3948V13.7635" fill="black"/>
<path d="M109.718 19.5885V16.8712C108.895 18.7077 107.424 19.8904 105.28 19.8904C101.416 19.8904 99.3445 16.5942 99.3445 12.3654C99.3445 8.21346 101.414 4.81538 105.28 4.81538C107.424 4.81538 108.897 6.02308 109.718 7.85961V5.11731H112.41V19.5885H109.718ZM109.718 12.3404C109.718 10.05 108.173 8.71731 105.878 8.71731C103.535 8.71731 102.014 10.0519 102.014 12.3404C102.014 14.7308 103.535 15.9904 105.878 15.9904C108.173 15.9904 109.718 14.7308 109.718 12.3404Z" fill="black"/>
<path d="M115.877 19.5885V5.11731H118.569V8.79231C119.318 6.275 120.937 5.11731 123.83 5.11731H124.977V8.89231H124.478C121.736 8.89231 120.065 9.16923 119.116 10.8058C118.666 11.5865 118.567 12.5423 118.567 13.9769V19.5885H115.877Z" fill="black"/>
<path d="M91.3948 13.7635C91.3948 14.9885 91.8483 15.9981 93.5842 15.9981C95.141 15.9981 95.8232 15.2058 95.8232 13.75H97.6925C97.9516 17.7269 96.5816 19.8904 93.346 19.8904C90.1258 19.8904 88.7005 17.4577 88.7005 14.8654" fill="black"/>
<path d="M48.2965 13.7635C48.2965 14.9885 48.75 15.9981 50.4859 15.9981C52.0427 15.9981 52.7249 15.2058 52.7249 13.75H54.5941C54.8533 17.7269 53.4832 19.8904 50.2477 19.8904C47.0274 19.8904 45.6021 17.4577 45.6021 14.8654" fill="black"/>
<path d="M85.3125 15.4115C85.3125 17.3615 83.9101 19.8904 79.2778 19.8904C74.2397 19.8904 72.3609 16.9712 72.4848 13.75H74.354C74.354 14.5558 74.838 15.1346 75.4116 15.4865C76.4463 16.1 78.0888 16.1904 79.4608 16.1904C81.1547 16.1904 82.6258 15.7442 82.6258 14.8231C82.6258 14.3154 82.3228 13.9 81.3662 13.725C80.7355 13.6096 79.859 13.4673 78.5842 13.3096C75.726 12.9538 72.8125 12.4404 72.8125 9.34615C72.8125 6.63461 75.1143 4.81538 78.4204 4.81538C82.864 4.81538 84.9314 7.71154 84.6437 10.7212H82.8239C82.8239 10.0865 82.3209 9.40769 81.6978 9.08077C80.9756 8.70385 80.0553 8.46538 78.5842 8.46538C76.6483 8.46538 75.3582 8.88269 75.3582 9.81923C75.3582 10.55 75.9451 10.925 78.9558 11.2712C80.888 11.4885 82.2237 11.6673 83.1383 12.0788C84.7123 12.725 85.3125 14.0769 85.3125 15.4115Z" fill="black"/>
</g>
<defs>
<clipPath id="clip0_1_17">
<rect width="125" height="20" fill="white"/>
</clipPath>
</defs>
</svg>
