<svg width="32" height="32" viewBox="0 0 32 32" fill="none" xmlns="http://www.w3.org/2000/svg">
<path d="M27.3032 23.6487H26.6496C26.1267 22.9645 25.3232 22.5069 24.3736 22.5069C23.2932 22.5069 22.4089 23.0951 21.9015 23.941C21.6169 23.941 21.5477 23.941 21.2633 23.941C20.7557 23.0951 19.8677 22.5069 18.7912 22.5069C17.7108 22.5069 16.8265 23.0951 16.3191 23.941C16.0345 23.941 15.9655 23.941 15.6809 23.941C15.1735 23.0951 14.2853 22.5069 13.2088 22.5069C12.1285 22.5069 11.2442 23.0951 10.7367 23.941C10.4522 23.941 10.383 23.941 10.0985 23.941C9.59104 23.0951 8.70293 22.5069 7.62644 22.5069C6.67683 22.5069 5.87715 22.9645 5.35044 23.6487H4.69685C3.95484 17.7858 7.10357 9.84277 16.0077 9.84277C24.8964 9.83893 28.0452 17.7858 27.3032 23.6487Z" fill="#6DC5E3"/>
<path d="M17.1919 10.4543H14.7967L15.5656 8.05908H16.423L17.1919 10.4543Z" fill="#6DC5E3"/>
</svg>
