<svg width="32" height="32" viewBox="0 0 32 32" fill="none" xmlns="http://www.w3.org/2000/svg">
<path d="M20.8549 25.9948H11.145C10.1428 25.9948 9.33331 25.1814 9.33331 24.183V11.8481C9.33331 10.8459 10.1466 10.0364 11.145 10.0364H20.8549C21.8572 10.0364 22.6666 10.8497 22.6666 11.8481V24.183C22.6705 25.1814 21.8572 25.9948 20.8549 25.9948Z" fill="#44B8D9"/>
<path d="M17.6016 10.1945H14.3984L10.8829 4.44715C10.9947 4.24671 11.0217 4.20044 11.1335 4H13.8125L17.6016 10.1945Z" fill="#44B8D9"/>
<path d="M14.3984 10.1945H17.6016L21.117 4.44715C21.0053 4.24671 20.9784 4.20044 20.8665 4H18.1874L14.3984 10.1945Z" fill="#44B8D9"/>
</svg>
